<?xml version="1.0" standalone="no"?>
<!DOCTYPE svg PUBLIC "-//W3C//DTD SVG 1.1//EN" "http://www.w3.org/Graphics/SVG/1.1/DTD/svg11.dtd" >
<svg xmlns="http://www.w3.org/2000/svg">
<metadata>
<json>
<![CDATA[
{
	"fontFamily": "xeicon",
	"fontURL": "https://xpressengine.github.io/XEIcon/",
	"designer": "Junha Lee",
	"designerURL": "https://www.facebook.com/juna.junhalee",
	"license": "SIL OFL 1.1, MIT License, CCL 4.0",
	"licenseURL": "https://github.com/xpressengine/XEIcon",
	"description": "Beautiful transformable iconic font made for the web.\nFont generated by IcoMoon.",
	"copyright": "(C) NAVER http://www.navercorp.com",
	"majorVersion": 2,
	"minorVersion": 3,
	"version": "Version 2.3",
	"fontId": "xeicon",
	"psName": "xeicon",
	"subFamily": "Regular",
	"fullName": "xeicon"
}
]]>
</json>
</metadata>
<defs>
<font id="xeicon" horiz-adv-x="1024">
<font-face units-per-em="1024" ascent="942.9208211143695" descent="-81.0791788856305" />
<missing-glyph horiz-adv-x="1024" />
<glyph unicode="&#x20;" horiz-adv-x="512.5004887585533" d="" />
<glyph unicode="&#xe900;" glyph-name="brand133" data-tags="brand, twitter, x" horiz-adv-x="1133" d="M892.194 928h173.704l-379.5-433.763 446.465-590.237h-349.59l-273.792 357.985-313.29-357.985h-173.824l405.917 463.95-428.284 560.050h358.443l247.495-327.203 286.256 327.203zM831.223 7.98h96.26l-621.338 821.498h-103.285l628.363-821.498z" />
<glyph unicode="&#xe901;" glyph-name="brand132" data-tags="brand, tiktok" d="M824.38 690.68c-7.564 3.92-13.745 7.571-19.722 11.508l0.822-0.508c-18.323 12.213-34.238 25.809-48.383 41.069l-0.157 0.171c-36.2 41.42-49.72 83.44-54.7 112.86h0.2c-4.16 24.42-2.44 40.22-2.18 40.22h-164.88v-637.56c0-8.56 0-17.020-0.36-25.38 0-1.040-0.1-2-0.16-3.12 0-0.46 0-0.94-0.1-1.42 0-0.12 0-0.24 0-0.36-3.73-47.689-30.842-88.316-69.763-110.76l-0.677-0.36c-19.554-11.32-43.017-18-68.041-18-0.063 0-0.126 0-0.188 0h0.010c-76.82 0-139.080 62.64-139.080 140s62.26 140 139.080 140c0.038 0 0.083 0 0.128 0 15.261 0 29.943-2.481 43.665-7.062l-0.973 0.282 0.2 167.88c-11.784 1.607-25.403 2.524-39.237 2.524-75.129 0-143.94-27.050-197.225-71.943l0.462 0.379c-28.059-24.47-51.588-53.245-69.761-85.444l-0.839-1.616c-6.96-12-33.22-60.22-36.4-138.48-2-44.42 11.34-90.44 17.7-109.46v-0.4c4-11.2 19.5-49.42 44.76-81.64 20.512-25.878 44.041-48.123 70.361-66.672l1.059-0.708v0.4l0.4-0.4c79.82-54.24 168.32-50.68 168.32-50.68 15.32 0.62 66.64 0 124.92 27.62 64.64 30.62 101.44 76.24 101.44 76.24 22.656 26.15 41.312 56.557 54.528 89.721l0.752 2.139c14.92 39.22 19.9 86.26 19.9 105.060v338.24c2-1.2 28.64-18.82 28.64-18.82s38.38-24.6 98.26-40.62c42.96-11.4 100.84-13.8 100.84-13.8v163.68c-20.28-2.2-61.46 4.2-103.62 25.22z" />
<glyph unicode="&#xe902;" glyph-name="action" data-tags="action, home, house" d="M512.393 796.539l-426.977-341.090 53.513-66.817 31.903 25.518v-386.361h256.25v298.959h170.834v-298.959h256.25v386.361l31.924-25.518 53.492 66.86z" />
<glyph unicode="&#xe903;" glyph-name="media" data-tags="media, chart-bar" d="M128.040 27.788v555.209h170.834v-555.209h-170.834zM426.998 27.788v811.459h170.834v-811.459h-170.834zM725.957 326.747h170.834v-298.959h-170.834v298.959z" />
<glyph unicode="&#xe904;" glyph-name="action1" data-tags="action, home-o, home, house" d="M512.393 796.539l-426.977-341.069 53.513-66.838 31.903 25.518v-386.361h298.959v256.25h85.416v-256.25h298.959v386.361l31.924-25.518 53.492 66.881-427.19 341.026zM768.751 113.226h-127.634v256.378h-257.424v-256.378h-127.441v369.193l256.165 204.787 256.335-204.808v-369.172z" />
<glyph unicode="&#xe905;" glyph-name="action2" data-tags="action, apps, menu, control, tile, grid" d="M170.748 582.997h170.834v170.834h-170.834v-170.834zM170.748 326.747h170.834v170.834h-170.834v-170.834zM427.084 326.747h170.834v170.834h-170.834v-170.834zM683.248 326.747h170.834v170.834h-170.834v-170.834zM427.084 582.997h170.834v170.834h-170.834v-170.834zM683.248 753.83v-170.834h170.834v170.834h-170.834zM170.748 70.497h170.834v170.834h-170.834v-170.834zM427.084 70.497h170.834v170.834h-170.834v-170.834zM683.248 70.497h170.834v170.834h-170.834v-170.834z" />
<glyph unicode="&#xe906;" glyph-name="action3" data-tags="action, arrow-bottom, pointer" d="M768.751 459.249l-60.816 59.963-152.725-155.395v432.722h-85.374v-432.358l-152.64 156.099-60.945-59.791 256.207-261.867zM170.834 113.204h683.334v-85.416h-683.334v85.416z" />
<glyph unicode="&#xe907;" glyph-name="action4" data-tags="action, arrow-down, downward, pointer" d="M555.209 796.539v-605.135l238.569 238.612 60.39-60.39-341.795-341.838-341.539 341.582 60.368 60.39 238.59-238.59v605.37z" />
<glyph unicode="&#xe908;" glyph-name="action5" data-tags="action, arrow-left, back, before, pointer, backward, previous" d="M896.876 454.872h-605.135l238.612 238.569-60.39 60.39-341.838-341.795 341.582-341.539 60.39 60.39-238.59 238.569h605.37z" />
<glyph unicode="&#xe909;" glyph-name="action6" data-tags="action, arrow-right, forward, next, pointer" d="M128.125 454.872h605.114l-238.59 238.569 60.39 60.39 341.838-341.795-341.582-341.539-60.39 60.39 238.59 238.569h-605.37z" />
<glyph unicode="&#xe90a;" glyph-name="action7" data-tags="action, long-arrow-left, backspace, before, pointer, backward, previous" d="M939.585 454.872h-688.737l160.071 153.153-60.39 60.39-265.112-256.25 265.112-256.25 60.39 60.39-160.071 153.153h688.737z" />
<glyph unicode="&#xe90b;" glyph-name="action8" data-tags="action, long-arrow-up, upward, pointer" d="M768.751 582.997l-256.25 256.25-256.25-256.25 60.39-60.39 153.153 153.153v-690.679h85.416v690.679l153.153-153.153z" />
<glyph unicode="&#xe90c;" glyph-name="action9" data-tags="action, long-arrow-down, downward, pointer" d="M708.361 301.719l-153.153-153.153v690.679h-85.416v-690.679l-153.153 153.153-60.39-60.39 256.25-256.25 256.25 256.25z" />
<glyph unicode="&#xe90d;" glyph-name="action10" data-tags="action, long-arrow-right, forward, next, pointer" d="M674.472 625.705l-60.39-60.39 160.071-153.153h-688.737v-85.416h688.737l-160.071-153.153 60.39-60.39 265.112 256.25z" />
<glyph unicode="&#xe90e;" glyph-name="action11" data-tags="action, arrows, move, drag, handle, control" d="M939.585 412.163l-170.834 170.834v-128.125h-213.542v213.542h128.125l-170.834 170.834-170.834-170.834h128.125v-213.542h-213.542v128.125l-170.834-170.834 170.834-170.834v128.125h213.542v-213.542h-128.125l170.834-170.834 170.834 170.834h-128.125v213.542h213.542v-128.125z" />
<glyph unicode="&#xe90f;" glyph-name="action12" data-tags="action, arrows-alt, expand, zoom, control" d="M777.591 616.864l76.576-76.576v213.542h-213.542l76.576-76.576-204.701-204.701-204.701 204.701 76.576 76.576h-213.542v-213.542l76.576 76.576 204.701-204.701-204.701-204.701-76.576 76.576v-213.542h213.542l-76.576 76.576 204.701 204.701 204.701-204.701-76.576-76.576h213.542v213.542l-76.576-76.576-204.701 204.701z" />
<glyph unicode="&#xe910;" glyph-name="action13" data-tags="action, arrows-h, switch, control" d="M939.585 412.676l-213.542 170.321v-128.466h-427.084v128.466l-213.542-171.346 213.542-170.321v127.89h427.084v-127.89z" />
<glyph unicode="&#xe911;" glyph-name="action14" data-tags="action, arrows-v, control" d="M555.145 625.705h128.189l-171.346 213.542-170.321-213.542h128.189v-427.084h-128.189l170.834-213.542 170.834 213.542h-128.189z" />
<glyph unicode="&#xe912;" glyph-name="action15" data-tags="action, expand, zoom-in, control" d="M427.084 387.136l-201.028-201.028-97.931 97.931v-256.25h256.25l-97.931 97.931 201.028 201.028zM896.876 796.539h-256.25l97.931-97.931-201.028-201.028 60.39-60.39 201.028 201.028 97.931-97.931z" />
<glyph unicode="&#xe913;" glyph-name="action16" data-tags="action, compress, zoom-out, control" d="M311.472 228.816l-183.347-183.347 60.39-60.39 183.347 183.347 97.931-97.931v256.25h-256.25zM896.876 693.441l-60.39 60.39-183.347-183.347-97.931 97.931v-256.25h256.25l-97.931 97.931z" />
<glyph unicode="&#xe914;" glyph-name="action17" data-tags="action, arrow-top, pointer" d="M469.792 460.509v-432.722h85.374v432.358l152.64-156.099 60.945 59.791-256.207 261.867-256.293-260.628 60.816-59.963zM170.834 796.539h683.334v-85.416h-683.334v85.416z" />
<glyph unicode="&#xe915;" glyph-name="content" data-tags="content, plus, add" d="M896.876 454.872h-341.667v341.667h-85.416v-341.667h-341.667v-85.416h341.667v-341.667h85.416v341.667h341.667z" />
<glyph unicode="&#xe916;" glyph-name="content1" data-tags="content, plus-min, add" d="M768.751 454.872h-213.542v213.542h-85.416v-213.542h-213.542v-85.416h213.542v-213.542h85.416v213.542h213.542z" />
<glyph unicode="&#xe917;" glyph-name="action18" data-tags="action, arrow-up, upward, pointer" d="M555.209 27.788v605.135l238.569-238.612 60.39 60.39-341.795 341.838-341.539-341.582 60.39-60.39 238.569 238.59v-605.37z" />
<glyph unicode="&#xe918;" glyph-name="content2" data-tags="content, plus-circle, add" d="M512.5 839.247c-235.878 0-427.084-191.206-427.084-427.084s191.206-427.084 427.084-427.084 427.084 191.206 427.084 427.084-191.206 427.084-427.084 427.084zM726.042 369.455h-170.834v-170.834h-85.416v170.834h-170.834v85.416h170.834v170.834h85.416v-170.834h170.834v-85.416z" />
<glyph unicode="&#xe919;" glyph-name="content3" data-tags="content, plus-circle-o, add" d="M555.209 625.705h-85.416v-170.834h-170.834v-85.416h170.834v-170.834h85.416v170.834h170.834v85.416h-170.834zM512.5 839.247c-235.494 0-427.084-191.59-427.084-427.084s191.59-427.084 427.084-427.084 427.084 191.59 427.084 427.084-191.59 427.084-427.084 427.084zM512.5 70.497c-188.387 0-341.667 153.281-341.667 341.667s153.281 341.667 341.667 341.667 341.667-153.281 341.667-341.667-153.281-341.667-341.667-341.667z" />
<glyph unicode="&#xe91a;" glyph-name="content4" data-tags="content, plus-square, add" d="M854.167 796.539h-683.334c-23.575 0-42.709-19.134-42.709-42.709v-683.334c0-23.575 19.134-42.709 42.709-42.709h683.334c23.575 0 42.709 19.134 42.709 42.709v683.334c0 23.575-19.134 42.709-42.709 42.709zM726.042 369.455h-170.834v-170.834h-85.416v170.834h-170.834v85.416h170.834v170.834h85.416v-170.834h170.834v-85.416z" />
<glyph unicode="&#xe91b;" glyph-name="content5" data-tags="content, plus-square-o, add" d="M555.209 625.705h-85.416v-170.834h-170.834v-85.416h170.834v-170.834h85.416v170.834h170.834v85.416h-170.834zM854.167 27.788h-683.334c-23.575 0-42.709 19.134-42.709 42.709v683.334c0 23.575 19.134 42.709 42.709 42.709h683.334c23.575 0 42.709-19.134 42.709-42.709v-683.334c0-23.575-19.134-42.709-42.709-42.709zM213.542 113.204h597.917v597.917h-597.917v-597.917z" />
<glyph unicode="&#xe91c;" glyph-name="content6" data-tags="content, minus, remove, minify, clear" d="M128.125 454.872h768.751v-85.416h-768.751v85.416z" />
<glyph unicode="&#xe91d;" glyph-name="content7" data-tags="content, minus-min, remove, minify, clear" d="M256.25 454.872h512.5v-85.416h-512.5v85.416z" />
<glyph unicode="&#xe91e;" glyph-name="action19" data-tags="action, bars, menu, hamburger, control" d="M128.125 113.204h768.751v85.416h-768.751v-85.416zM128.125 369.455h768.751v85.416h-768.751v-85.416zM128.125 711.122v-85.416h768.751v85.416h-768.751z" />
<glyph unicode="&#xe91f;" glyph-name="content8" data-tags="content, minus-circle, remove, minify, clear, delete" d="M512.5 839.247c-235.878 0-427.084-191.206-427.084-427.084s191.206-427.084 427.084-427.084 427.084 191.206 427.084 427.084-191.206 427.084-427.084 427.084zM726.042 369.455h-427.084v85.416h427.084v-85.416z" />
<glyph unicode="&#xe920;" glyph-name="content9" data-tags="content, minus-circle-o, remove, minify, clear, delete" d="M298.959 454.872h427.084v-85.416h-427.084v85.416zM512.5 839.247c-235.494 0-427.084-191.59-427.084-427.084s191.59-427.084 427.084-427.084 427.084 191.59 427.084 427.084-191.59 427.084-427.084 427.084zM512.5 70.497c-188.387 0-341.667 153.281-341.667 341.667s153.281 341.667 341.667 341.667 341.667-153.281 341.667-341.667-153.281-341.667-341.667-341.667z" />
<glyph unicode="&#xe921;" glyph-name="content10" data-tags="content, minus-square, remove, minify, clear, delete" d="M854.167 796.539h-683.334c-23.575 0-42.709-19.134-42.709-42.709v-683.334c0-23.575 19.134-42.709 42.709-42.709h683.334c23.575 0 42.709 19.134 42.709 42.709v683.334c0 23.575-19.134 42.709-42.709 42.709zM726.042 369.455h-427.084v85.416h427.084v-85.416z" />
<glyph unicode="&#xe922;" glyph-name="content11" data-tags="content, minus-square-o, remove, minify, clear, delete" d="M298.959 454.872h427.084v-85.416h-427.084v85.416zM854.167 27.788h-683.334c-23.575 0-42.709 19.134-42.709 42.709v683.334c0 23.575 19.134 42.709 42.709 42.709h683.334c23.575 0 42.709-19.134 42.709-42.709v-683.334c0-23.575-19.134-42.709-42.709-42.709zM213.542 113.204h597.917v597.917h-597.917v-597.917z" />
<glyph unicode="&#xe923;" glyph-name="content12" data-tags="content, close, times, clear, remove, delete" d="M896.876 735.572l-60.988 60.967-323.388-323.409-323.388 323.409-60.988-60.967 323.409-323.409-323.409-323.409 60.988-60.967 323.388 323.409 323.388-323.409 60.988 60.967-323.409 323.409z" />
<glyph unicode="&#xe924;" glyph-name="content13" data-tags="content, close-min, times, clear, remove, delete" d="M726.042 564.739l-61.009 60.967-152.597-152.576-152.49 152.576-60.988-60.967 152.49-152.576-151.016-152.576 61.009-60.967 150.995 152.576 152.597-152.576 61.009 60.967-152.597 152.576z" />
<glyph unicode="&#xe925;" glyph-name="action20" data-tags="action, catched, setting" d="M512.5 668.413c43.135 0 84.135-10.677 119.584-29.896l62.354 62.354c-52.531 33.313-114.885 52.959-181.938 52.959-188.771 0-341.667-152.896-341.667-341.667h-128.125l170.834-170.834 170.834 170.834h-128.125c0 141.365 114.885 256.25 256.25 256.25zM512.5 70.497c188.771 0 341.667 152.896 341.667 341.667h128.125l-170.834 170.834-170.834-170.834h128.125c0-141.365-114.885-256.25-256.25-256.25-43.135 0-83.709 11.104-119.584 29.896l-62.354-62.354c52.531-33.313 114.885-52.959 181.938-52.959z" />
<glyph unicode="&#xe926;" glyph-name="content14" data-tags="content, close-circle, times, clear, remove, delete, stop, warning" d="M512.5 839.247c-235.878 0-427.084-191.206-427.084-427.084s191.206-427.084 427.084-427.084c235.878 0 427.084 191.206 427.084 427.084s-191.206 427.084-427.084 427.084zM712.14 279.618l-67.117-67.095-132.524 132.524-132.545-132.524-67.117 67.095 132.524 132.545-132.524 132.545 67.117 67.117 132.545-132.545 132.524 132.545 67.117-67.117-132.545-132.545 132.545-132.545z" />
<glyph unicode="&#xe927;" glyph-name="content15" data-tags="content, close-circle-o, times, clear, stop, warning, remove, delete" d="M631.785 591.838l-119.284-119.284-119.284 119.284-60.39-60.39 119.284-119.284-119.284-119.284 60.39-60.39 119.284 119.284 119.284-119.284 60.39 60.39-119.284 119.284 119.284 119.284zM512.5 839.247c-235.494 0-427.084-191.59-427.084-427.084s191.59-427.084 427.084-427.084 427.084 191.59 427.084 427.084-191.59 427.084-427.084 427.084zM512.5 70.497c-188.387 0-341.667 153.281-341.667 341.667s153.281 341.667 341.667 341.667 341.667-153.281 341.667-341.667-153.281-341.667-341.667-341.667z" />
<glyph unicode="&#xe928;" glyph-name="content16" data-tags="content, close-square, times, clear, remove, delete" d="M854.167 796.539h-683.334c-23.575 0-42.709-19.134-42.709-42.709v-683.334c0-23.575 19.134-42.709 42.709-42.709h683.334c23.575 0 42.709 19.134 42.709 42.709v683.334c0 23.575-19.134 42.709-42.709 42.709zM692.175 292.879l-60.39-60.39-119.284 119.284-119.284-119.284-60.39 60.39 119.284 119.284-119.284 119.284 60.39 60.39 119.284-119.284 119.284 119.284 60.39-60.39-119.284-119.284 119.284-119.284z" />
<glyph unicode="&#xe929;" glyph-name="content17" data-tags="content, close-square-o, times, clear, remove, delete" d="M631.785 591.838l-119.284-119.284-119.284 119.284-60.39-60.39 119.284-119.284-119.284-119.284 60.39-60.39 119.284 119.284 119.284-119.284 60.39 60.39-119.284 119.284 119.284 119.284zM854.167 27.788h-683.334c-23.575 0-42.709 19.134-42.709 42.709v683.334c0 23.575 19.134 42.709 42.709 42.709h683.334c23.575 0 42.709-19.134 42.709-42.709v-683.334c0-23.575-19.134-42.709-42.709-42.709zM213.542 113.204h597.917v597.917h-597.917v-597.917z" />
<glyph unicode="&#xe92a;" glyph-name="content18" data-tags="content, check, form, success" d="M384.375 113.204l-298.959 299.557 64.063 64.020 234.896-234.746 491.147 469.087 64.063-63.614z" />
<glyph unicode="&#xe92b;" glyph-name="content19" data-tags="content, check-min, form, success" d="M427.084 198.622l-213.542 213.542 64.063 64.063 149.479-148.689 320.313 298.168 64.063-63.657z" />
<glyph unicode="&#xe92c;" glyph-name="content20" data-tags="content, check-thin, form, success" d="M426.977 155.913l-298.852 255.481 27.675 32.523 268.807-229.9 442.053 454.396 30.217-30.173z" />
<glyph unicode="&#xe92d;" glyph-name="content21" data-tags="content, check-circle, form, success" d="M512.5 839.247c-235.878 0-427.084-191.206-427.084-427.084s191.206-427.084 427.084-427.084 427.084 191.206 427.084 427.084-191.206 427.084-427.084 427.084zM469.194 241.329l-170.235 170.834 60.624 60.176 110.807-110.977 196.245 197.612 59.407-61.393-256.848-256.25z" />
<glyph unicode="&#xe92e;" glyph-name="content22" data-tags="content, check-circle-o, form, success" d="M512.5 839.247c-235.494 0-427.084-191.59-427.084-427.084s191.59-427.084 427.084-427.084 427.084 191.59 427.084 427.084-191.59 427.084-427.084 427.084zM512.5 70.497c-188.387 0-341.667 153.281-341.667 341.667s153.281 341.667 341.667 341.667 341.667-153.281 341.667-341.667-153.281-341.667-341.667-341.667zM470.39 361.362l-110.807 110.977-60.624-60.176 170.235-170.834 256.848 256.25-59.407 61.393z" />
<glyph unicode="&#xe92f;" glyph-name="content23" data-tags="content, check-square, form, success" d="M854.167 796.539h-683.334c-23.575 0-42.709-19.134-42.709-42.709v-683.334c0-23.575 19.134-42.709 42.709-42.709h683.334c23.575 0 42.709 19.134 42.709 42.709v683.334c0 23.575-19.134 42.709-42.709 42.709zM726.042 497.58l-256.848-256.25-170.235 170.834 60.624 60.176 110.807-110.977 196.245 197.612 59.407-61.393z" />
<glyph unicode="&#xe930;" glyph-name="content24" data-tags="content, check-square-o, form" d="M470.39 361.362l-110.807 110.977-60.624-60.176 170.235-170.834 256.848 256.25-59.407 61.393zM854.167 27.788h-683.334c-23.575 0-42.709 19.134-42.709 42.709v683.334c0 23.575 19.134 42.709 42.709 42.709h683.334c23.575 0 42.709-19.134 42.709-42.709v-683.334c0-23.575-19.134-42.709-42.709-42.709zM213.542 113.204h597.917v597.917h-597.917v-597.917z" />
<glyph unicode="&#xe931;" glyph-name="action21" data-tags="action, caret-up, drop, pointer" d="M939.585 113.204l-427.084 597.917-427.084-597.917z" />
<glyph unicode="&#xe932;" glyph-name="action22" data-tags="action, caret-up-min, drop, pointer" d="M768.751 241.329l-256.25 341.667-256.25-341.667z" />
<glyph unicode="&#xe933;" glyph-name="action23" data-tags="action, caret-up-circle, drop, pointer" d="M512.5 839.247c-235.878 0-427.084-191.206-427.084-427.084s191.206-427.084 427.084-427.084 427.084 191.206 427.084 427.084-191.206 427.084-427.084 427.084zM341.667 326.747l170.834 213.542 170.834-213.542h-341.667z" />
<glyph unicode="&#xe934;" glyph-name="action24" data-tags="action, caret-up-circle-o, drop, pointer" d="M341.667 326.747l170.834 213.542 170.834-213.542zM512.5 753.83c188.387 0 341.667-153.259 341.667-341.667s-153.281-341.667-341.667-341.667-341.667 153.259-341.667 341.667 153.281 341.667 341.667 341.667zM512.5 839.247c-235.878 0-427.084-191.206-427.084-427.084s191.206-427.084 427.084-427.084 427.084 191.206 427.084 427.084-191.206 427.084-427.084 427.084v0z" />
<glyph unicode="&#xe935;" glyph-name="action25" data-tags="action, caret-up-square, drop, pointer" d="M854.167 796.539h-683.334c-23.575 0-42.709-19.134-42.709-42.709v-683.334c0-23.575 19.134-42.709 42.709-42.709h683.334c23.575 0 42.709 19.134 42.709 42.709v683.334c0 23.575-19.134 42.709-42.709 42.709zM683.334 326.747h-341.667l170.834 213.542 170.834-213.542z" />
<glyph unicode="&#xe936;" glyph-name="action26" data-tags="action, caret-up-square-o, drop, pointer" d="M341.667 326.747l170.834 213.542 170.834-213.542zM854.167 27.788h-683.334c-23.575 0-42.709 19.134-42.709 42.709v683.334c0 23.575 19.134 42.709 42.709 42.709h683.334c23.575 0 42.709-19.134 42.709-42.709v-683.334c0-23.575-19.134-42.709-42.709-42.709zM213.542 113.204h597.917v597.917h-597.917v-597.917z" />
<glyph unicode="&#xe937;" glyph-name="action27" data-tags="action, caret-down, drop, pointer" d="M85.416 711.122l427.084-597.917 427.084 597.917z" />
<glyph unicode="&#xe938;" glyph-name="action28" data-tags="action, caret-down-min, drop, pointer" d="M768.751 582.997l-256.25-341.667-256.25 341.667z" />
<glyph unicode="&#xe939;" glyph-name="action29" data-tags="action, caret-down-circle, drop, pointer" d="M512.5 839.247c-235.878 0-427.084-191.206-427.084-427.084s191.206-427.084 427.084-427.084 427.084 191.206 427.084 427.084-191.206 427.084-427.084 427.084zM512.5 284.038l-170.834 213.542h341.667l-170.834-213.542z" />
<glyph unicode="&#xe93a;" glyph-name="action30" data-tags="action, caret-down-circle-o, drop, pointer" d="M683.334 497.58l-170.834-213.542-170.834 213.542zM512.5 753.83c188.387 0 341.667-153.259 341.667-341.667s-153.281-341.667-341.667-341.667-341.667 153.259-341.667 341.667 153.281 341.667 341.667 341.667zM512.5 839.247c-235.878 0-427.084-191.206-427.084-427.084s191.206-427.084 427.084-427.084 427.084 191.206 427.084 427.084-191.206 427.084-427.084 427.084v0z" />
<glyph unicode="&#xe93b;" glyph-name="action31" data-tags="action, caret-down-square, drop, pointer" d="M854.167 796.539h-683.334c-23.575 0-42.709-19.134-42.709-42.709v-683.334c0-23.575 19.134-42.709 42.709-42.709h683.334c23.575 0 42.709 19.134 42.709 42.709v683.334c0 23.575-19.134 42.709-42.709 42.709zM683.334 497.58l-170.834-213.542-170.834 213.542h341.667z" />
<glyph unicode="&#xe93c;" glyph-name="action32" data-tags="action, caret-down-square-o, drop, pointer" d="M683.334 497.58l-170.834-213.542-170.834 213.542zM854.167 27.788h-683.334c-23.575 0-42.709 19.134-42.709 42.709v683.334c0 23.575 19.134 42.709 42.709 42.709h683.334c23.575 0 42.709-19.134 42.709-42.709v-683.334c0-23.575-19.134-42.709-42.709-42.709zM213.542 113.204h597.917v597.917h-597.917v-597.917z" />
<glyph unicode="&#xe93d;" glyph-name="action33" data-tags="action, angle-left, chevron, before, pointer, previous" d="M768.751 777.405l-384.375-365.242 383.543-365.242-63.23-61.841-448.438 427.084 449.271 427.084z" />
<glyph unicode="&#xe93e;" glyph-name="action34" data-tags="action, angle-left-min, chevron, before, pointer, previous" d="M683.334 198.707l-219.137 213.542 219.115 213.349-59.749 61.137-281.896-274.444 281.875-274.7z" />
<glyph unicode="&#xe93f;" glyph-name="action35" data-tags="action, angle-left-thin, chevron, before, pointer, previous" d="M724.868 58.922l-29.277-31.134-396.632 384.375 397.85 384.375 29.234-31.134-364.751-353.241z" />
<glyph unicode="&#xe940;" glyph-name="action36" data-tags="action, angle-right, chevron, next, pointer" d="M256.25 46.922l384.375 365.242-383.543 365.242 63.23 61.841 448.438-427.084-449.271-427.084z" />
<glyph unicode="&#xe941;" glyph-name="action37" data-tags="action, angle-right-min, chevron, next, pointer" d="M341.667 198.707l219.137 213.542-219.115 213.349 59.749 61.137 281.896-274.444-281.875-274.7z" />
<glyph unicode="&#xe942;" glyph-name="action38" data-tags="action, angle-right-thin, chevron, next, pointer" d="M300.133 58.922l29.277-31.134 396.632 384.375-397.85 384.375-29.234-31.134 364.751-353.241z" />
<glyph unicode="&#xe943;" glyph-name="action39" data-tags="action, angle-down, collapse, expand, control" d="M147.259 668.413l365.242-341.667 365.264 340.834 61.82-63.23-427.084-405.729-427.084 406.562z" />
<glyph unicode="&#xe944;" glyph-name="action40" data-tags="action, angle-down-min, collapse, expand, control" d="M725.957 582.997l-213.542-219.137-213.349 219.115-61.137-59.77 274.465-281.875 274.679 281.854z" />
<glyph unicode="&#xe945;" glyph-name="action41" data-tags="action, angle-down-thin, collapse, expand, control" d="M865.762 624.531l31.113-29.277-384.375-396.632-384.375 397.85 31.134 29.234 353.241-364.751z" />
<glyph unicode="&#xe946;" glyph-name="action42" data-tags="action, angle-up, collapse, expand-less, control" d="M877.742 198.622l-365.242 341.667-365.264-340.834-61.82 63.23 427.084 405.729 427.084-406.562z" />
<glyph unicode="&#xe947;" glyph-name="action43" data-tags="action, angle-up-min, collapse, expand-less, control" d="M299.044 241.329l213.542 219.137 213.349-219.115 61.137 59.77-274.465 281.875-274.679-281.854z" />
<glyph unicode="&#xe948;" glyph-name="action44" data-tags="action, angle-up-thin, collapse, expand-less, control" d="M159.239 199.796l-31.113 29.277 384.375 396.632 384.375-397.85-31.134-29.234-353.241 364.751z" />
<glyph unicode="&#xe949;" glyph-name="action45" data-tags="action, compare-arrows, control" d="M427.084 369.455l170.834 170.834-170.834 170.834v-128.125h-341.667v-85.416h341.667zM597.917 326.747v128.125l-170.834-170.834 170.834-170.834v128.125h341.667v85.416z" />
<glyph unicode="&#xe94a;" glyph-name="action46" data-tags="action, dashboard, tachometer, setting" d="M512.5 839.247c-235.878 0-427.084-191.206-427.084-427.084 0-109.739 41.748-209.506 109.782-285.142l151.785 151.785 61.393-61.393-148.817-148.817c60.070-44.31 131.905-73.587 210.232-81.359v424.927h85.416v-424.927c215.806 21.44 384.375 203.463 384.375 424.927 0 235.878-191.206 427.084-427.084 427.084zM298.959 369.455c-23.49 0-42.709 19.219-42.709 42.709s19.219 42.709 42.709 42.709c23.49 0 42.709-19.219 42.709-42.709s-19.219-42.709-42.709-42.709zM512.5 582.997c-23.49 0-42.709 19.219-42.709 42.709s19.219 42.709 42.709 42.709 42.709-19.219 42.709-42.709c0-23.49-19.219-42.709-42.709-42.709zM726.042 369.455c-23.49 0-42.709 19.219-42.709 42.709s19.219 42.709 42.709 42.709 42.709-19.219 42.709-42.709c0-23.49-19.219-42.709-42.709-42.709z" />
<glyph unicode="&#xe94b;" glyph-name="action47" data-tags="action, ellipsis-v, more, control" d="M597.917 412.163c0-47.174-38.242-85.416-85.416-85.416s-85.416 38.242-85.416 85.416c0 47.174 38.242 85.416 85.416 85.416s85.416-38.242 85.416-85.416zM597.917 113.204c0-47.174-38.242-85.416-85.416-85.416s-85.416 38.242-85.416 85.416c0 47.174 38.242 85.416 85.416 85.416s85.416-38.242 85.416-85.416zM597.917 711.122c0-47.174-38.242-85.416-85.416-85.416s-85.416 38.242-85.416 85.416c0 47.174 38.242 85.416 85.416 85.416s85.416-38.242 85.416-85.416z" />
<glyph unicode="&#xe94c;" glyph-name="action48" data-tags="action, ellipsis-h, more, control" d="M597.917 412.163c0-47.174-38.242-85.416-85.416-85.416s-85.416 38.242-85.416 85.416c0 47.174 38.242 85.416 85.416 85.416s85.416-38.242 85.416-85.416zM896.876 412.163c0-47.174-38.242-85.416-85.416-85.416s-85.416 38.242-85.416 85.416c0 47.174 38.242 85.416 85.416 85.416s85.416-38.242 85.416-85.416zM298.959 412.163c0-47.174-38.242-85.416-85.416-85.416s-85.416 38.242-85.416 85.416c0 47.174 38.242 85.416 85.416 85.416s85.416-38.242 85.416-85.416z" />
<glyph unicode="&#xe94d;" glyph-name="action49" data-tags="action, scroll, mouse-wheel, control" d="M512.5 839.247l-170.834-213.542h341.667zM512.5-14.921l170.834 213.542h-341.667zM597.917 412.163c0-47.174-38.242-85.416-85.416-85.416s-85.416 38.242-85.416 85.416c0 47.174 38.242 85.416 85.416 85.416s85.416-38.242 85.416-85.416z" />
<glyph unicode="&#xe94e;" glyph-name="hardware" data-tags="hardware, power-off, input" d="M725.722 689.213l-47.449-71.024c83.388-55.691 133.186-148.689 133.186-248.712 0-164.854-134.104-298.959-298.959-298.959s-298.959 134.104-298.959 298.959c0 100.045 49.798 193.020 133.186 248.712l-47.449 71.024c-107.177-71.601-171.154-191.12-171.154-319.757 0-211.94 172.435-384.375 384.375-384.375s384.375 172.435 384.375 384.375c0 128.617-63.977 248.157-171.154 319.757zM469.792 839.247h85.416v-427.084h-85.416v427.084z" />
<glyph unicode="&#xe94f;" glyph-name="hardware1" data-tags="hardware, alt, keyboard, input, option" d="M364.516 711.122h-236.391v-85.416h190.693l341.667-512.5h236.391v85.416h-190.693zM683.334 711.122h213.542v-85.416h-213.542v85.416z" />
<glyph unicode="&#xe950;" glyph-name="hardware2" data-tags="hardware, command, keyboard, input" d="M768.751 326.747h-85.416v170.834h85.416c94.193 0 170.834 76.64 170.834 170.834s-76.64 170.834-170.834 170.834-170.834-76.64-170.834-170.834v-85.416h-170.834v85.416c0 94.193-76.64 170.834-170.834 170.834s-170.834-76.64-170.834-170.834 76.64-170.834 170.834-170.834h85.416v-170.834h-85.416c-94.193 0-170.834-76.64-170.834-170.834s76.64-170.834 170.834-170.834 170.834 76.64 170.834 170.834v85.416h170.834v-85.416c0-94.193 76.64-170.834 170.834-170.834s170.834 76.64 170.834 170.834-76.64 170.834-170.834 170.834zM683.334 668.413c0 47.107 38.309 85.416 85.416 85.416s85.416-38.309 85.416-85.416-38.309-85.416-85.416-85.416h-85.416v85.416zM256.25 582.997c-47.107 0-85.416 38.309-85.416 85.416s38.309 85.416 85.416 85.416 85.416-38.309 85.416-85.416v-85.416h-85.416zM341.667 155.913c0-47.107-38.309-85.416-85.416-85.416s-85.416 38.309-85.416 85.416 38.309 85.416 85.416 85.416h85.416v-85.416zM427.084 326.747v170.834h170.834v-170.834h-170.834zM768.751 70.497c-47.107 0-85.416 38.309-85.416 85.416v85.416h85.416c47.107 0 85.416-38.309 85.416-85.416s-38.309-85.416-85.416-85.416z" />
<glyph unicode="&#xe951;" glyph-name="hardware3" data-tags="hardware, esc, keyboard, input" d="M213.435 650.903l281.448-281.448 60.326 60.326-281.448 281.448h152.981v85.31h-298.617v-298.617h85.31zM533.854 796.539h-21.354v-85.416h21.354c176.62 0 320.313-143.692 320.313-320.313s-143.692-320.313-320.313-320.313-320.313 143.692-320.313 320.313v21.354h-85.416v-21.354c0-223.727 182.002-405.729 405.729-405.729s405.729 182.002 405.729 405.729-182.002 405.729-405.729 405.729z" />
<glyph unicode="&#xe952;" glyph-name="action50" data-tags="action, eye-o, redeye, control" d="M932.666 428.67c-5.552 13.282-139.315 325.161-419.994 325.161-280.637 0-414.741-311.836-420.293-325.117l-6.962-16.549 6.962-16.549c5.573-13.282 139.656-325.117 420.293-325.117 280.679 0 414.442 311.857 419.994 325.161l6.919 16.507-6.919 16.507zM512.672 155.913c-191.184 0-304.361 197.206-333.958 256.314 29.49 59.194 142.070 256.186 333.958 256.186 191.184 0 304.148-197.27 333.638-256.314-29.384-59.151-141.727-256.186-333.638-256.186zM512.5 582.997c-94.193 0-170.834-76.64-170.834-170.834s76.64-170.834 170.834-170.834 170.834 76.64 170.834 170.834-76.64 170.834-170.834 170.834zM512.5 326.747c-47.107 0-85.416 38.309-85.416 85.416s38.309 85.416 85.416 85.416 85.416-38.309 85.416-85.416-38.309-85.416-85.416-85.416z" />
<glyph unicode="&#xe953;" glyph-name="action51" data-tags="action, eye, red-eye, control" d="M512.5 497.58c-47.107 0-85.416-38.309-85.416-85.416s38.309-85.416 85.416-85.416 85.416 38.309 85.416 85.416-38.309 85.416-85.416 85.416zM932.666 428.67c-5.552 13.282-139.315 325.161-419.994 325.161-280.637 0-414.741-311.836-420.293-325.117l-6.962-16.549 6.962-16.549c5.573-13.282 139.656-325.117 420.293-325.117 280.679 0 414.442 311.857 419.994 325.161l6.919 16.507-6.919 16.507zM512.5 241.329c-94.193 0-170.834 76.64-170.834 170.834s76.64 170.834 170.834 170.834 170.834-76.64 170.834-170.834-76.619-170.834-170.834-170.834z" />
<glyph unicode="&#xe954;" glyph-name="action52" data-tags="action, eye-off-o, red-eye, control" d="M178.714 412.248c29.49 59.194 142.070 256.186 333.958 256.186 40.723 0 77.687-9.31 111.256-23.959l64.447 64.447c-50.438 27.142-108.842 44.929-175.703 44.929-280.658 0-414.741-311.836-420.314-325.117l-6.962-16.549 6.962-16.549c2.84-6.748 39.057-90.884 110.871-171.837l60.859 60.859c-43.883 50.268-72.519 101.945-85.374 127.592zM341.667 412.184c0-15.247 2.199-29.938 5.958-44.011l208.887 208.865c-14.073 3.78-28.785 5.958-44.011 5.958-94.193 0.021-170.834-76.598-170.834-170.812zM932.666 428.712c-3.182 7.623-48.901 113.818-140.382 202.779l104.571 104.593-60.432 60.432-110.444-110.444c0 0-0.021 0-0.043 0.021l-62.248-62.269c0 0 0.021-0.021 0.043-0.021l-64.618-64.618c0 0-0.043 0.021-0.043 0.021l-64.767-64.767c0.021 0 0.021-0.021 0.064-0.021l-240.662-240.64c0 0-0.021 0.021-0.043 0.043l-60.902-60.923c0.021-0.021 0.043-0.021 0.043-0.021l-104.657-104.678 60.432-60.411 110.636 110.636c58.297-39.698 129.235-67.885 213.477-67.885 280.679 0 414.442 311.857 419.994 325.161l6.919 16.507-6.94 16.507zM594.778 434.009c1.879-6.983 3.16-14.222 3.16-21.802 0-47.107-38.309-85.416-85.416-85.416-7.58 0-14.819 1.281-21.802 3.139l104.059 104.081zM512.672 155.934c-57.613 0-108.009 18.023-151.252 44.716l64.49 64.49c25.39-15.055 54.966-23.767 86.592-23.767 94.193 0 170.834 76.64 170.834 170.834 0 31.604-8.713 61.18-23.767 86.592l71.921 71.921c60.774-58.596 99.34-127.592 114.821-158.576-29.384-59.173-141.727-256.207-333.638-256.207z" />
<glyph unicode="&#xe955;" glyph-name="action53" data-tags="action, eye-off, red-eye, control" d="M347.796 367.619c-3.865 14.243-6.107 29.127-6.107 44.588 0 94.193 76.64 170.834 170.834 170.834 15.439 0 30.345-2.242 44.588-6.107l131.756 131.756c-50.545 27.27-109.12 45.185-176.172 45.185-280.658 0-414.741-311.836-420.314-325.117l-6.962-16.549 6.962-16.549c2.84-6.77 39.185-91.14 111.234-172.221l144.184 144.184zM932.687 428.712c-3.203 7.623-48.923 113.818-140.404 202.801l104.593 104.593-60.432 60.432-708.319-708.319 60.432-60.411 110.636 110.636c58.297-39.698 129.235-67.906 213.499-67.906 280.679 0 414.442 311.857 419.994 325.161l6.919 16.507-6.919 16.507zM512.522 241.351c-31.647 0-61.201 8.713-86.592 23.788l64.767 64.767c7.004-1.879 14.222-3.139 21.824-3.139 47.107 0 85.416 38.309 85.416 85.416 0 7.58-1.281 14.819-3.16 21.802l64.767 64.767c15.076-25.39 23.788-54.945 23.788-86.592 0.021-94.172-76.619-170.812-170.812-170.812z" />
<glyph unicode="&#xe956;" glyph-name="action54" data-tags="action, expand-square, zoom-in, control" d="M128.125 540.288h85.416v170.834h170.834v85.416h-256.25zM640.626 796.539v-85.416h170.834v-170.834h85.416v256.25zM213.542 284.038h-85.416v-256.25h256.25v85.416h-170.834zM811.459 113.204h-170.834v-85.416h256.25v256.25h-85.416z" />
<glyph unicode="&#xe957;" glyph-name="action55" data-tags="action, compress-square, zoom-out, control" d="M298.959 625.705h-170.834v-85.416h256.25v256.25h-85.416zM726.042 625.705v170.834h-85.416v-256.25h256.25v85.416zM128.125 198.622h170.834v-170.834h85.416v256.25h-256.25zM640.626 27.788h85.416v170.834h170.834v85.416h-256.25z" />
<glyph unicode="&#xe958;" glyph-name="editor" data-tags="editor, align-justify, format" d="M128.125 711.122h768.751v-85.416h-768.751v85.416zM128.125 540.288h768.751v-85.416h-768.751v85.416zM128.125 369.455h768.751v-85.416h-768.751v85.416zM128.125 198.622h768.751v-85.416h-768.751v85.416z" />
<glyph unicode="&#xe959;" glyph-name="editor1" data-tags="editor, align-left, format" d="M128.125 711.122h555.209v-85.416h-555.209v85.416zM128.125 369.455h555.209v-85.416h-555.209v85.416zM128.125 540.288h768.751v-85.416h-768.751v85.416zM128.125 198.622h768.751v-85.416h-768.751v85.416z" />
<glyph unicode="&#xe95a;" glyph-name="editor2" data-tags="editor, align-center, format" d="M256.25 711.122h512.5v-85.416h-512.5v85.416zM256.25 369.455h512.5v-85.416h-512.5v85.416zM128.125 540.288h768.751v-85.416h-768.751v85.416zM128.125 198.622h768.751v-85.416h-768.751v85.416z" />
<glyph unicode="&#xe95b;" glyph-name="editor3" data-tags="editor, align-right, format" d="M341.667 711.122h555.209v-85.416h-555.209v85.416zM341.667 369.455h555.209v-85.416h-555.209v85.416zM128.125 540.288h768.751v-85.416h-768.751v85.416zM128.125 198.622h768.751v-85.416h-768.751v85.416z" />
<glyph unicode="&#xe95c;" glyph-name="editor4" data-tags="editor, indent, format" d="M128.125 198.622h768.751v-85.416h-768.751v85.416zM128.125 711.122h768.751v-85.416h-768.751v85.416zM427.084 540.288h469.792v-85.416h-469.792v85.416zM427.084 369.455h469.792v-85.416h-469.792v85.416zM128.125 540.288v-256.25l213.542 128.125z" />
<glyph unicode="&#xe95d;" glyph-name="editor5" data-tags="editor, dedent, outdent, format" d="M128.125 198.622h768.751v-85.416h-768.751v85.416zM128.125 711.122h768.751v-85.416h-768.751v85.416zM427.079 540.288h469.792v-85.416h-469.792v85.416zM427.079 369.455h469.792v-85.416h-469.792v85.416zM341.676 284.038v256.25l-213.542-128.125z" />
<glyph unicode="&#xe95e;" glyph-name="editor6" data-tags="editor, list-dot, format, text" d="M384.375 198.622h512.5v-85.416h-512.5v85.416zM384.375 711.122h512.5v-85.416h-512.5v85.416zM384.375 454.872h512.5v-85.416h-512.5v85.416zM298.959 668.413c0-47.174-38.242-85.416-85.416-85.416s-85.416 38.242-85.416 85.416c0 47.174 38.242 85.416 85.416 85.416s85.416-38.242 85.416-85.416zM298.959 412.163c0-47.174-38.242-85.416-85.416-85.416s-85.416 38.242-85.416 85.416c0 47.174 38.242 85.416 85.416 85.416s85.416-38.242 85.416-85.416zM298.959 155.913c0-47.174-38.242-85.416-85.416-85.416s-85.416 38.242-85.416 85.416c0 47.174 38.242 85.416 85.416 85.416s85.416-38.242 85.416-85.416z" />
<glyph unicode="&#xe95f;" glyph-name="editor7" data-tags="editor, list-square, format, text" d="M384.375 198.622h512.5v-85.416h-512.5v85.416zM384.375 711.122h512.5v-85.416h-512.5v85.416zM384.375 454.872h512.5v-85.416h-512.5v85.416zM128.125 753.83h170.834v-170.834h-170.834v170.834zM128.125 497.58h170.834v-170.834h-170.834v170.834zM128.125 241.329h170.834v-170.834h-170.834v170.834z" />
<glyph unicode="&#xe960;" glyph-name="action56" data-tags="action, dashboard-o, tachometer, setting" d="M512.415 839.247c-235.494 0-427.084-191.59-427.084-427.084 0-105.276 38.651-206.41 108.821-284.822 10.485-11.68 21.76-22.955 33.526-33.484l30.109-26.991 150.483 150.483-60.39 60.39-91.653-91.653c-55.137 62.461-85.459 142.646-85.459 226.077 0 188.387 153.281 341.667 341.667 341.667s341.667-153.281 341.667-341.667c0-173.951-130.645-317.921-298.959-339.019v339.019h-85.416v-427.084h42.709c235.494 0 427.084 191.59 427.084 427.084s-191.611 427.084-427.105 427.084zM555.123 625.705c0 23.49-19.219 42.709-42.709 42.709s-42.709-19.219-42.709-42.709c0-23.49 19.219-42.709 42.709-42.709s42.709 19.219 42.709 42.709zM256.165 412.163c0-23.49 19.219-42.709 42.709-42.709s42.709 19.219 42.709 42.709-19.219 42.709-42.709 42.709c-23.49 0-42.709-19.219-42.709-42.709zM768.666 412.163c0 23.49-19.219 42.709-42.709 42.709s-42.709-19.219-42.709-42.709c0-23.49 19.219-42.709 42.709-42.709s42.709 19.219 42.709 42.709z" />
<glyph unicode="&#xe961;" glyph-name="editor8" data-tags="editor, list, format, text" d="M128.125 711.122h170.834v-85.416h-170.834v85.416zM128.125 454.872h170.834v-85.416h-170.834v85.416zM128.125 198.622h170.834v-85.416h-170.834v85.416zM384.375 198.622h512.5v-85.416h-512.5v85.416zM384.375 711.122h512.5v-85.416h-512.5v85.416zM384.375 454.872h512.5v-85.416h-512.5v85.416z" />
<glyph unicode="&#xe962;" glyph-name="action57" data-tags="action, drag-handle, control, bar" d="M854.167 540.288h-683.334v-85.416h683.334v85.416zM170.834 284.038h683.334v85.416h-683.334v-85.416z" />
<glyph unicode="&#xe963;" glyph-name="action58" data-tags="action, flag, setting" d="M614.916 668.413l-17.084 85.416h-384.375v-726.042h85.416v298.959h239.167l17.084-85.416h298.959v427.084h-239.167z" />
<glyph unicode="&#xe964;" glyph-name="action59" data-tags="action, flag-o, setting" d="M619.186 668.413h234.896v-427.084h-298.959l-21.354 85.416h-234.896v-298.959h-85.416v726.042h384.375l21.354-85.416zM298.873 668.413v-256.25h256.25l21.354-85.416h192.188v256.25h-170.834l-21.354 85.416h-277.604z" />
<glyph unicode="&#xe965;" glyph-name="action60" data-tags="action, log-in, sign-in, pointer" d="M297.186 113.204h514.251v597.917h-514.251v85.416h599.669v-768.751h-599.669zM726.064 412.163l-256.271 213.542v-128.125h-341.667v-170.834h341.667v-128.125z" />
<glyph unicode="&#xe966;" glyph-name="action61" data-tags="action, lock, https, setting, security, ssl" d="M768.751 582.997h-42.709v85.416c0 94.193-76.64 170.834-170.834 170.834h-85.416c-94.193 0-170.834-76.64-170.834-170.834v-85.416h-42.709c-47.107 0-85.416-38.309-85.416-85.416v-427.084c0-47.107 38.309-85.416 85.416-85.416h512.5c47.107 0 85.416 38.309 85.416 85.416v427.084c0 47.107-38.309 85.416-85.416 85.416zM384.375 668.413c0 47.107 38.309 85.416 85.416 85.416h85.416c47.107 0 85.416-38.309 85.416-85.416v-85.416h-256.25v85.416zM555.209 198.622h-85.416v170.834h85.416v-170.834z" />
<glyph unicode="&#xe967;" glyph-name="action62" data-tags="action, unlock, open, setting" d="M768.751 582.997h-42.709v85.416c0 94.193-76.64 170.834-170.834 170.834h-213.542v-85.416h213.542c47.107 0 85.416-38.309 85.416-85.416v-85.416h-384.375c-47.107 0-85.416-38.309-85.416-85.416v-427.084c0-47.107 38.309-85.416 85.416-85.416h512.5c47.107 0 85.416 38.309 85.416 85.416v427.084c0 47.107-38.309 85.416-85.416 85.416zM555.209 369.455v-170.834h-85.416v170.834h85.416z" />
<glyph unicode="&#xe968;" glyph-name="action63" data-tags="action, lock-o, https, setting, security, ssl" d="M768.751 582.997h-42.709v85.416c0 94.193-76.64 170.834-170.834 170.834h-85.416c-94.193 0-170.834-76.64-170.834-170.834v-85.416h-42.709c-47.107 0-85.416-38.309-85.416-85.416v-427.084c0-47.107 38.309-85.416 85.416-85.416h512.5c47.107 0 85.416 38.309 85.416 85.416v427.084c0 47.107-38.309 85.416-85.416 85.416zM384.375 668.413c0 47.107 38.309 85.416 85.416 85.416h85.416c47.107 0 85.416-38.309 85.416-85.416v-85.416h-256.25v85.416zM256.25 70.497v427.084h512.5l0.043-427.084h-512.544zM469.792 369.455h85.416v-170.834h-85.416v170.834z" />
<glyph unicode="&#xe969;" glyph-name="action64" data-tags="action, unlock-o, open, setting" d="M768.751 582.997h-42.709v85.416c0 94.193-76.64 170.834-170.834 170.834h-213.542v-85.416h213.542c47.107 0 85.416-38.309 85.416-85.416v-85.416h-384.375c-47.107 0-85.416-38.309-85.416-85.416v-427.084c0-47.107 38.309-85.416 85.416-85.416h512.5c47.107 0 85.416 38.309 85.416 85.416v427.084c0 47.107-38.309 85.416-85.416 85.416zM256.25 70.497v427.084h512.5l0.043-427.084h-512.544zM469.792 369.455h85.416v-170.834h-85.416v170.834z" />
<glyph unicode="&#xe96a;" glyph-name="editor9" data-tags="editor, paragraph, format, text" d="M854.167 796.539h-451.662c-127.741 0-231.671-105.383-231.671-234.896s103.909-234.896 231.671-234.896h109.995v-298.959h85.416v683.334h85.416v-683.334h85.416v683.334h85.416v85.416z" />
<glyph unicode="&#xe96b;" glyph-name="editor10" data-tags="editor, strikethrough, text, format" d="M896.876 454.872h-768.751v-85.416h422.834c36.985-9.417 62.674-16.869 76.555-22.209 31.434-11.852 53.941-26.458 67.65-43.862 13.645-17.425 20.479-37.797 20.479-61.095 0-23.019-7.090-44.224-21.226-63.635-14.222-19.454-35.832-34.722-64.852-45.89-29.041-11.126-62.546-16.741-100.429-16.741-42.709 0-81.124 7.367-115.27 22.059-34.166 14.691-59.365 33.996-75.573 57.827-16.229 23.788-26.565 54.325-31.027 91.502l-93.745-8.093c1.345-49.713 15.098-94.236 41.256-133.635 26.117-39.398 62.141-68.91 108.138-88.491 45.869-19.624 102.863-29.405 170.834-29.405 53.641 0 101.88 9.716 144.76 29.127 42.858 19.454 75.743 46.681 98.613 81.659 22.87 34.999 34.317 72.242 34.317 111.789 0 39.868-10.421 75.124-31.219 105.746-3.16 4.634-7.111 8.926-10.806 13.325h127.463v85.438zM269.767 497.58h176.129c-39.591 11.766-66.005 23.362-78.648 34.743-19.475 17.254-29.213 39.206-29.213 65.941 0 30.75 13.73 57.016 41.256 78.818 27.483 21.824 71.302 32.715 131.413 32.715 57.72 0 101.368-12.001 130.901-36.003 29.554-24.023 46.894-59.493 51.998-106.493l95.325 7.090c-1.751 43.627-14.030 82.662-36.921 117.17-22.87 34.445-55.606 60.582-98.123 78.327-42.538 17.766-91.653 26.629-147.28 26.629-50.566 0-96.521-8.456-137.842-25.369s-72.754-41.662-94.279-74.292c-21.504-32.629-32.288-67.693-32.288-105.255 0-34.145 8.777-64.98 26.394-92.527 0.363-0.491 0.833-0.961 1.174-1.494z" />
<glyph unicode="&#xe96c;" glyph-name="editor11" data-tags="editor, bold, format" d="M701.549 427.88c41.256 38.971 67.202 94.001 67.202 155.116 0 117.747-95.795 213.542-213.521 213.542h-298.98v-768.751h341.689c117.726 0 213.521 95.795 213.521 213.542 0 80.142-44.438 150.035-109.91 186.55zM341.667 711.122h213.564c70.64 0 128.125-57.464 128.125-128.125s-57.464-128.125-128.125-128.125h-213.564v256.25zM597.939 113.204h-256.271v256.25h256.271c70.64 0 128.125-57.464 128.125-128.125s-57.485-128.125-128.125-128.125z" />
<glyph unicode="&#xe96d;" glyph-name="editor12" data-tags="editor, underline, format, text, underscore" d="M128.125 113.204h768.751v-85.416h-768.751v85.416zM512.5 154.888c164.854 0 298.959 134.104 298.959 298.959v342.692h-85.416v-342.692c0-117.747-95.795-213.542-213.542-213.542s-213.542 95.795-213.542 213.542v342.692h-85.416v-342.692c0-164.854 134.104-298.959 298.959-298.959z" />
<glyph unicode="&#xe96e;" glyph-name="editor13" data-tags="editor, italic, format" d="M427.084 796.539v-85.416h169.595l-261.61-597.917h-164.235v-85.416h427.084v85.416h-169.595l261.588 597.917h164.256v85.416z" />
<glyph unicode="&#xe96f;" glyph-name="editor14" data-tags="editor, caps, format, text, upper" d="M818.612 796.539h-647.78v-170.855h85.374v85.416h213.585v-597.917h-128.21v-85.395h341.731v85.395h-128.104v597.917h213.542v-85.416h85.416v170.855z" />
<glyph unicode="&#xe970;" glyph-name="action65" data-tags="action, trash, delete, setting, remove, full" d="M640.605 753.638v85.609h-256.25v-85.609h-213.521v-85.416h683.334v85.416zM726.042 625.705h-512.5v-597.917c0-23.575 19.134-42.709 42.709-42.709h512.5c23.575 0 42.709 20.479 42.709 44.054v596.572h-85.416z" />
<glyph unicode="&#xe971;" glyph-name="action66" data-tags="action, trash-o, delete, setting, remove, empty" d="M640.626 753.638v85.609h-256.25v-85.609h-213.542v-85.416h683.334v85.416zM726.042 70.497h-427.084v555.209h-85.416v-597.917c0-23.575 19.134-42.709 42.709-42.709h512.5c23.575 0 42.709 19.134 42.709 42.709v597.917h-85.416v-555.209z" />
<glyph unicode="&#xe972;" glyph-name="editor15" data-tags="editor, eraser, delete, function" d="M619.208 839.225l-533.79-480.961 220.332-245.082h223.984l409.851 369.662-320.377 356.38zM496.89 198.6h-153.089l-137.842 153.323 201.199 181.297 206.281-229.472-116.551-105.148zM85.416 70.497h854.167v-85.416h-854.167v85.416z" />
<glyph unicode="&#xe973;" glyph-name="editor16" data-tags="editor, eraser-o, delete, function" d="M85.416 70.497h854.167v-85.416h-854.167v85.416zM529.733 113.204l409.851 369.662-320.377 356.38-533.79-480.961 220.332-245.082h223.984zM612.843 718.553l206.196-229.365-143.031-129.001-206.26 229.429 143.095 128.937zM406.306 532.452l206.281-229.472-115.697-104.337h-153.089l-137.842 153.323 200.345 180.485z" />
<glyph unicode="&#xe974;" glyph-name="action67" data-tags="action, log-out, sign-out, pointer" d="M896.876 412.163l-256.25 213.542v-128.125h-341.689v-170.834h341.689v-128.125zM726.042 113.204h-512.5v597.917h512.5v85.416h-597.917v-768.751h597.917z" />
<glyph unicode="&#xe975;" glyph-name="action68" data-tags="action, refresh, renew, control" d="M512.5 113.204c-164.854 0-298.959 134.104-298.959 298.959s134.104 298.959 298.959 298.959c82.449 0 156.996-33.654 211.043-87.873l-125.712-125.67h299.044v298.959l-113.027-113.006c-69.487 69.7-165.345 113.006-271.348 113.006-211.94 0-384.375-172.435-384.375-384.375s172.435-384.375 384.375-384.375c182.535 0 335.389 128.061 374.361 298.959h-88.513c-36.857-123.256-150.739-213.542-285.847-213.542z" />
<glyph unicode="&#xe976;" glyph-name="editor17" data-tags="editor, sort-asc, ascending, table, function" d="M85.416 326.704h128.125v384.418h85.416v-384.418h128.125l-170.834-213.499zM469.792 198.63h469.792v-85.416h-469.792v85.416zM469.792 540.285h298.959v-85.416h-298.959v85.416zM469.792 369.458h384.375v-85.416h-384.375v85.416zM469.792 711.114h213.542v-85.416h-213.542v85.416z" />
<glyph unicode="&#xe977;" glyph-name="editor18" data-tags="editor, sort-desc, descending, table, function" d="M469.792 711.122h469.792v-85.416h-469.792v85.416zM469.792 369.455h298.959v-85.416h-298.959v85.416zM469.792 540.288h384.375v-85.416h-384.375v85.416zM469.792 198.622h213.542v-85.416h-213.542v85.416zM299.449 711.122h-85.416v-384.375h-128.617l170.834-213.542 170.834 213.542h-127.634z" />
<glyph unicode="&#xe978;" glyph-name="editor19" data-tags="editor, line-height, function, format" d="M384.375 540.288h85.929v-256.25h-85.929l128.125-128.125 42.709 42.709h0.513v0.491l84.904 84.926h-84.904v256.25h84.904l-84.904 84.926v0.491h-0.513l-42.709 42.709zM939.585 753.83h-854.167v-85.416h854.167zM85.416 70.497h854.167v85.416h-854.167z" />
<glyph unicode="&#xe979;" glyph-name="action69" data-tags="action, renew, auto-renew, refresh, control" d="M768.751 412.163h-128.125l170.834-170.834 170.834 170.834h-128.125c0 188.771-152.896 341.667-341.667 341.667-67.052 0-129.406-19.646-181.938-52.959l62.354-62.354c35.448 19.219 76.448 29.896 119.584 29.896 141.365 0 256.25-114.885 256.25-256.25zM694.438 123.454l-62.354 62.354c-35.875-18.791-76.448-29.896-119.584-29.896-141.365 0-256.25 114.885-256.25 256.25h128.125l-170.834 170.834-170.834-170.834h128.125c0-188.771 152.896-341.667 341.667-341.667 67.052 0 129.406 19.646 181.938 52.959z" />
<glyph unicode="&#xe97a;" glyph-name="editor20" data-tags="editor, rotate-right, function" d="M939.563 497.58l0.021 256.25-92.101-76.918c-79.993 100.791-202.843 162.335-334.876 162.335-235.579 0-427.212-191.59-427.212-427.084s191.632-427.084 427.212-427.084c151.145 0 288.025 77.345 366.139 206.922l-73.18 44.075c-62.525-103.674-172.029-165.602-292.958-165.602-188.451 0-341.774 153.281-341.774 341.667s153.323 341.667 341.774 341.667c106.387 0 205.385-49.926 269.34-131.628l-98.699-82.427 256.314-42.174z" />
<glyph unicode="&#xe97b;" glyph-name="editor21" data-tags="editor, rotate-left, function" d="M512.5 839.247c-131.969 0-254.798-61.521-334.748-162.314l-91.887 76.896-0.427-256.25 256.25 42.196-98.464 82.384c63.934 81.723 162.911 131.67 269.298 131.67 188.387 0 341.667-153.281 341.667-341.667s-153.281-341.667-341.667-341.667c-120.886 0-230.369 61.905-292.873 165.602l-73.159-44.075c78.092-129.578 214.93-206.922 366.032-206.922 235.494 0 427.084 191.59 427.084 427.084s-191.611 427.062-427.105 427.062z" />
<glyph unicode="&#xe97c;" glyph-name="action70" data-tags="action, search, magnify, zoom" d="M811.459 476.226c0 200.495-162.527 363.022-363.022 363.022s-363.022-162.527-363.022-363.022 162.527-363.022 363.022-363.022c200.495 0 363.022 162.527 363.022 363.022zM448.438 198.622c-153.089 0-277.604 124.538-277.604 277.604s124.517 277.604 277.604 277.604c153.066 0 277.604-124.538 277.604-277.604s-124.538-277.604-277.604-277.604zM704.173 158.99l61.35 61.35 173.539-173.539-61.35-61.35-173.539 173.539z" />
<glyph unicode="&#xe97d;" glyph-name="action71" data-tags="action, zoom-in, search, magnify, control" d="M491.147 668.413h-85.416v-149.479h-149.479v-85.416h149.479v-149.479h85.416v149.479h149.479v85.416h-149.479zM811.459 476.226c0 200.495-162.527 363.022-363.022 363.022s-363.022-162.527-363.022-363.022 162.527-363.022 363.022-363.022c200.495 0 363.022 162.527 363.022 363.022zM448.438 198.622c-153.089 0-277.604 124.538-277.604 277.604s124.517 277.604 277.604 277.604c153.066 0 277.604-124.538 277.604-277.604s-124.538-277.604-277.604-277.604zM703.735 158.576l61.35 61.35 173.539-173.539-61.35-61.35-173.539 173.539z" />
<glyph unicode="&#xe97e;" glyph-name="action72" data-tags="action, zoom-out, search, magnify, control" d="M256.25 518.935h384.375v-85.416h-384.375v85.416zM811.459 476.226c0 200.495-162.527 363.022-363.022 363.022s-363.022-162.527-363.022-363.022 162.527-363.022 363.022-363.022c200.495 0 363.022 162.527 363.022 363.022zM448.438 198.622c-153.089 0-277.604 124.538-277.604 277.604s124.517 277.604 277.604 277.604c153.066 0 277.604-124.538 277.604-277.604s-124.538-277.604-277.604-277.604zM703.731 158.554l61.35 61.35 173.539-173.539-61.35-61.35-173.539 173.539z" />
<glyph unicode="&#xe97f;" glyph-name="editor22" data-tags="editor, color-dropper, function" d="M756.984 484.341l-0.192 0.192 0.427 0.405-172.221 172.2-0.405-0.405-54.389 54.389-60.411-60.411 54.945-54.945-439.32-440.195v-170.47h170.642l440.409 438.957 54.581-54.581 60.411 60.411-54.474 54.453zM220.76 70.497h-49.926v49.734l414.25 415.082 50.951-50.93-415.275-413.887zM903.902 803.586c-47.577 47.555-124.709 47.555-172.285 0l-116.381-116.253 172.2-172.2 116.487 116.359c47.555 47.513 47.555 124.559-0.021 172.093z" />
<glyph unicode="&#xe980;" glyph-name="action73" data-tags="action, subdirectory, depth, control, node" d="M298.959 412.163v427.084h-85.416v-512.5h512.5v85.416z" />
<glyph unicode="&#xe981;" glyph-name="editor23" data-tags="editor, text-type, format, text, upper, lower" d="M660.101 132.615l-232.334 621.215h-84.627l-257.724-683.334h93.318l96.991 256.742h217.664l96.499-256.742h93.574l-23.362 62.12zM307.949 412.569l76.896 203.506 76.491-203.506h-153.387zM889.402 155.913c4.741 13.24 7.431 27.44 7.516 42.26h0.384v171.709c0 70.661-57.464 128.125-128.125 128.125h-129.001v-85.416h129.001c23.554 0 42.709-19.155 42.709-42.709v-43.157l-128.553-0.043c-16.656 0-32.523-3.31-47.15-9.118l30.066-79.929c5.253 2.285 11.040 3.631 17.148 3.631v0.043h128.125v-42.559c0-23.596-19.198-42.815-42.815-42.815v-0.043h-71.707l32.116-85.416h210.467v85.416h-50.182z" />
<glyph unicode="&#xe982;" glyph-name="action74" data-tags="action, external-link, launch, control" d="M811.459 113.204h-597.917v597.917h298.959v85.416h-384.375v-768.751h768.751v384.375h-85.416zM597.917 796.539v-85.416h153.345l-256.037-256.742 60.475-60.326 255.759 256.485v-152.96h85.416v298.959z" />
<glyph unicode="&#xe983;" glyph-name="action75" data-tags="action, subdirectory-arrow, depth, control, node" d="M811.459 369.455l-213.542-213.542-60.646 60.646 110.615 110.188h-434.344v512.5h85.416v-427.084h348.928l-110.615 110.188 60.646 60.646 213.542-213.542z" />
<glyph unicode="&#xe984;" glyph-name="action76" data-tags="action, sync, loop, control" d="M768.666 412.163c0-43.135-10.677-84.135-29.896-119.584l62.354-62.354c33.313 52.531 52.959 114.885 52.959 181.938 0 188.771-152.896 341.667-341.667 341.667v128.125l-170.834-170.834 170.834-170.834v128.125c141.365 0 256.25-114.885 256.25-256.25zM170.748 412.163c0-188.771 152.896-341.667 341.667-341.667v-128.125l170.834 170.834-170.834 170.834v-128.125c-141.365 0-256.25 114.885-256.25 256.25 0 43.135 11.104 83.709 29.896 119.584l-62.354 62.354c-33.313-52.531-52.959-114.885-52.959-181.938z" />
<glyph unicode="&#xe985;" glyph-name="action77" data-tags="action, view-array, control, grid, column" d="M170.834 113.204h128.125v597.917h-128.125v-597.917zM768.751 711.122v-597.917h128.125v597.917h-128.125zM341.667 113.204h384.375v597.917h-384.375v-597.917z" />
<glyph unicode="&#xe986;" glyph-name="action78" data-tags="action, view-carousel, control, grid, column" d="M341.582 113.204h384.375v640.626h-384.375v-640.626zM170.748 198.622h128.125v469.792h-128.125v-469.792zM768.666 668.413v-469.792h128.125v469.792h-128.125z" />
<glyph unicode="&#xe987;" glyph-name="action79" data-tags="action, view-column, week, control, grid, column" d="M427.084 113.204h213.542v597.917h-213.542v-597.917zM170.834 113.204h213.542v597.917h-213.542v-597.917zM683.334 711.122v-597.917h213.542v597.917h-213.542z" />
<glyph unicode="&#xe988;" glyph-name="action80" data-tags="action, cog, settings" d="M826.023 360.165c0.79 5.36 1.388 10.741 2.007 16.123l0.341 2.477c0.213 1.366 0.405 2.755 0.513 4.121 0.876 9.738 1.324 19.539 1.324 29.256s-0.448 19.518-1.324 29.256c-0.128 1.366-0.32 2.755-0.513 4.121l-0.341 2.477c-0.598 5.381-1.217 10.763-2.007 16.123l88.363 71.665c3.951 3.182 4.997 8.777 2.519 13.24l-85.096 152.256c-2.563 4.569-8.115 6.555-12.877 4.569l-105.234-42.517c-1.238 0.961-2.455 1.922-3.695 2.883l-7.047 5.594c-2.327 1.922-4.677 3.844-7.090 5.594-1.281 0.94-2.648 1.794-3.993 2.648l-2.199 1.409c-20.777 14.35-42.494 26.009-64.639 34.679l-16.101 114.138c-0.726 5.104-5.082 8.948-10.229 8.948h-172.371c-5.146 0-9.502-3.844-10.229-8.948l-16.101-114.138c-22.145-8.669-43.862-20.308-64.575-34.637l-2.306-1.473c-1.302-0.833-2.648-1.687-3.929-2.627-2.413-1.751-4.762-3.673-7.090-5.573l-7.111-5.659c-1.217-0.94-2.413-1.879-3.652-2.84l-105.234 42.517c-4.784 1.986-10.293 0-12.856-4.569l-85.096-152.256c-2.477-4.463-1.409-10.058 2.519-13.24l88.363-71.665c-0.79-5.36-1.409-10.741-1.965-16.080l-0.363-2.413c-0.213-1.409-0.427-2.84-0.534-4.228-0.876-9.759-1.324-19.539-1.324-29.256s0.448-19.496 1.324-29.256c0.128-1.388 0.341-2.819 0.534-4.228l0.341-2.37c0.577-5.381 1.196-10.763 1.986-16.123l-88.363-71.643c-3.951-3.182-4.997-8.777-2.519-13.218l85.096-152.298c2.563-4.548 8.093-6.513 12.856-4.569l105.234 42.517c1.153-0.897 2.285-1.794 3.459-2.67l7.090-5.638c2.37-1.965 4.805-3.951 7.303-5.766 1.11-0.79 2.242-1.516 3.395-2.242l1.965-1.281c20.948-14.563 42.965-26.394 65.451-35.213l16.101-114.138c0.726-5.104 5.082-8.948 10.229-8.948h172.371c5.146 0 9.502 3.844 10.229 8.948l16.101 114.138c22.529 8.841 44.523 20.671 65.429 35.191l1.965 1.281c1.174 0.726 2.306 1.473 3.416 2.263 2.541 1.837 4.976 3.823 7.431 5.83l6.962 5.552c1.174 0.876 2.306 1.773 3.459 2.67l105.234-42.517c4.762-1.943 10.293 0.021 12.877 4.569l85.096 152.298c2.477 4.441 1.409 10.037-2.519 13.218l-88.363 71.665zM662.194 412.163c0-82.405-67.052-149.479-149.479-149.479-82.405 0-149.479 67.074-149.479 149.479s67.074 149.479 149.479 149.479c82.427 0 149.479-67.074 149.479-149.479z" />
<glyph unicode="&#xe989;" glyph-name="editor24" data-tags="editor, border-all, grid, border, format, table" d="M128.125 796.539v-768.751h768.751v768.751h-768.751zM811.459 711.122v-256.25h-256.25v256.25h256.25zM469.792 711.122v-256.25h-256.25v256.25h256.25zM213.542 113.204v256.25h256.25v-256.25h-256.25zM555.209 113.204v256.25h256.25v-256.25h-256.25z" />
<glyph unicode="&#xe98a;" glyph-name="editor25" data-tags="editor, layout, function, format" d="M128.125 582.997h768.751v-555.209h-768.751v555.209zM128.125 796.539h768.751v-170.834h-768.751v170.834z" />
<glyph unicode="&#xe98b;" glyph-name="editor26" data-tags="editor, layout-full, function, format" d="M128.125 796.539h768.751v-768.751h-768.751v768.751z" />
<glyph unicode="&#xe98c;" glyph-name="editor27" data-tags="editor, layout-snb, function, format" d="M341.667 582.997h555.209v-555.209h-555.209v555.209zM128.125 582.997h170.834v-555.209h-170.834v555.209zM128.125 796.539h768.751v-170.834h-768.751v170.834z" />
<glyph unicode="&#xe98d;" glyph-name="editor28" data-tags="editor, layout-aside, function, format" d="M128.125 582.997h555.209v-555.209h-555.209v555.209zM726.042 582.997h170.834v-555.209h-170.834v555.209zM128.125 796.539h768.751v-170.834h-768.751v170.834z" />
<glyph unicode="&#xe98e;" glyph-name="editor29" data-tags="editor, layout-column, function, format" d="M341.667 582.997h341.667v-555.209h-341.667v555.209zM128.125 582.997h170.834v-555.209h-170.834v555.209zM128.125 796.539h768.751v-170.834h-768.751v170.834zM726.042 582.997h170.834v-555.209h-170.834v555.209z" />
<glyph unicode="&#xe98f;" glyph-name="action81" data-tags="action, view-day, control, grid, row" d="M896.876 113.204v128.125h-726.042v-128.125h726.042zM170.834 582.997h726.042v128.125h-726.042v-128.125zM896.876 284.038v256.25h-726.042v-256.25h726.042z" />
<glyph unicode="&#xe990;" glyph-name="editor30" data-tags="editor, layout-o, function, format" d="M128.125 796.539v-768.751h768.751v768.751h-768.751zM811.459 711.122v-128.125h-597.917v128.125h597.917zM213.542 113.204v384.375h597.917v-384.375h-597.917z" />
<glyph unicode="&#xe991;" glyph-name="editor31" data-tags="editor, layout-full-o, function, format" d="M896.876 27.788h-768.751v768.751h768.751v-768.751zM213.542 113.204h597.917v597.917h-597.917v-597.917z" />
<glyph unicode="&#xe992;" glyph-name="editor32" data-tags="editor, layout-snb-o, function, format" d="M128.125 796.539v-768.751h768.751v768.751h-768.751zM811.459 711.122v-128.125h-597.917v128.125h597.917zM213.542 497.58h128.125v-384.375h-128.125v384.375zM427.084 113.204v384.375h384.375v-384.375h-384.375z" />
<glyph unicode="&#xe993;" glyph-name="editor33" data-tags="editor, layout-aside-o, function, format" d="M128.125 796.539v-768.751h768.751v768.751h-768.751zM811.459 711.122v-128.125h-597.917v128.125h597.917zM213.542 497.58h384.375v-384.375h-384.375v384.375zM683.334 113.204v384.375h128.125v-384.375h-128.125z" />
<glyph unicode="&#xe994;" glyph-name="editor34" data-tags="editor, layout-column-o, function, format" d="M128.125 796.539v-768.751h768.751v768.751h-768.751zM811.459 711.122v-128.125h-597.917v128.125h597.917zM640.626 497.58v-384.375h-256.25v384.375h256.25zM213.542 497.58h85.416v-384.375h-85.416v384.375zM726.042 113.204v384.375h85.416v-384.375h-85.416z" />
<glyph unicode="&#xe995;" glyph-name="action82" data-tags="action, view-list, control, grid, column, row" d="M170.748 326.747h170.834v170.834h-170.834v-170.834zM170.748 113.204h170.834v170.834h-170.834v-170.834zM170.748 540.288h170.834v170.834h-170.834v-170.834zM384.29 326.747h512.5v170.834h-512.5v-170.834zM384.29 113.204h512.5v170.834h-512.5v-170.834zM384.29 711.122v-170.834h512.5v170.834h-512.5z" />
<glyph unicode="&#xe996;" glyph-name="editor35" data-tags="editor, scissors, cut, function, clipboard" d="M704.688 326.747c-15.14 0-29.746-2.285-43.498-6.513l-71.878 76.47 180.699 186.294c107.326 102.777 43.606 211.385 42.794 213.349v0.192l-0.064-0.064-0.021 0.064-0.213-0.299-299.343-318.519-299.664 318.626c-0.812-1.965-64.532-110.593 42.794-213.349l180.699-186.294-72.134-76.768c-14.094 4.42-29.041 6.791-44.567 6.791-82.405 0-149.479-67.074-149.479-149.479s67.074-149.479 149.479-149.479c82.405 0 149.479 67.074 149.479 149.479 0 27.398-7.559 53.023-20.479 75.145l63.849 65.813 63.017-64.98c-13.24-22.294-20.969-48.218-20.969-75.978 0-82.405 67.074-149.479 149.479-149.479s149.479 67.074 149.479 149.479-67.052 149.501-149.458 149.501zM320.313 113.204c-35.319 0-64.063 28.743-64.063 64.063s28.743 64.063 64.063 64.063 64.063-28.743 64.063-64.063-28.743-64.063-64.063-64.063zM512.522 369.455c-11.788 0-21.354 9.566-21.354 21.376 0 11.788 9.566 21.333 21.354 21.333s21.354-9.545 21.354-21.333c0-11.809-9.566-21.376-21.354-21.376zM704.688 113.204c-35.319 0-64.063 28.743-64.063 64.063s28.743 64.063 64.063 64.063 64.063-28.743 64.063-64.063-28.743-64.063-64.063-64.063z" />
<glyph unicode="&#xe997;" glyph-name="editor36" data-tags="editor, palette, color, function" d="M939.585 413.167l-0.085 0.384c-0.833 211.642-191.654 383.009-426.998 383.009-235.878 0-427.084-172.093-427.084-384.375 0-207.947 183.624-376.901 412.84-383.735v-0.641h249.139c35.384 0 64.063 28.679 64.063 64.063 0 35.363-28.679 64.063-64.063 64.063h-21.354c-47.171 0-85.416 38.245-85.416 85.416s38.245 85.416 85.416 85.416h170.834c15.439 0 28.849 8.264 36.323 20.521 3.972 6.491 6.385 14.030 6.385 22.187 0 1.004-0.363 1.901-0.448 2.883 0.107 0.726 0.448 1.366 0.448 2.135v38.673zM277.604 241.329c-35.384 0-64.063 28.679-64.063 64.063 0 35.363 28.679 64.063 64.063 64.063s64.063-28.7 64.063-64.063c0-35.384-28.679-64.063-64.063-64.063zM277.604 454.872c-35.384 0-64.063 28.7-64.063 64.063 0 35.384 28.679 64.063 64.063 64.063 35.363 0 64.063-28.679 64.063-64.063 0-35.363-28.7-64.063-64.063-64.063zM491.147 582.997c-35.384 0-64.063 28.7-64.063 64.063 0 35.384 28.679 64.063 64.063 64.063 35.363 0 64.063-28.679 64.063-64.063 0-35.363-28.7-64.063-64.063-64.063zM704.688 454.872c-35.363 0-64.063 28.7-64.063 64.063 0 35.384 28.7 64.063 64.063 64.063 35.384 0 64.063-28.679 64.063-64.063 0-35.363-28.679-64.063-64.063-64.063z" />
<glyph unicode="&#xe998;" glyph-name="action83" data-tags="action, drag-vertical, handle, control, grid, tile" d="M384.375 796.539h85.416v-85.416h-85.416v85.416zM555.209 796.539h85.416v-85.416h-85.416v85.416zM384.375 625.705h85.416v-85.416h-85.416v85.416zM555.209 625.705h85.416v-85.416h-85.416v85.416zM384.375 454.872h85.416v-85.416h-85.416v85.416zM555.209 454.872h85.416v-85.416h-85.416v85.416zM384.375 284.038h85.416v-85.416h-85.416v85.416zM555.209 284.038h85.416v-85.416h-85.416v85.416zM384.375 113.204h85.416v-85.416h-85.416v85.416zM555.209 113.204h85.416v-85.416h-85.416v85.416z" />
<glyph unicode="&#xe999;" glyph-name="action84" data-tags="action, view-module, comfy, control, grid, tile" d="M170.748 454.872h213.542v256.25h-213.542v-256.25zM170.748 155.913h213.542v256.25h-213.542v-256.25zM426.998 155.913h213.542v256.25h-213.542v-256.25zM683.248 155.913h213.542v256.25h-213.542v-256.25zM426.998 454.872h213.542v256.25h-213.542v-256.25zM683.248 711.122v-256.25h213.542v256.25h-213.542z" />
<glyph unicode="&#xe99a;" glyph-name="editor37" data-tags="editor, document, paste, function, clipboard" d="M341.667 540.288h170.834v-85.416h-170.834v85.416zM341.667 412.163h341.667v-85.416h-341.667v85.416zM341.667 284.038h341.667v-85.416h-341.667v85.416zM811.459 796.539h-170.834v42.709h-256.25v-42.709h-170.834c-23.575 0-42.709-19.134-42.709-42.709v-726.042c0-23.575 19.134-42.709 42.709-42.709h597.917c23.575 0 42.709 19.134 42.709 42.709v726.042c0 23.575-19.134 42.709-42.709 42.709zM768.751 70.497h-512.5v640.626h128.125v-42.709h256.25v42.709h128.125v-640.626z" />
<glyph unicode="&#xe99b;" glyph-name="editor38" data-tags="editor, crop, function" d="M298.959 198.622v384.375h-85.416v-469.792h469.792v85.416zM811.459 198.622v512.5h-512.5v128.125h-85.416v-128.125h-128.125v-85.416h640.626v-640.626h85.416v128.125h128.125v85.416z" />
<glyph unicode="&#xe99c;" glyph-name="action85" data-tags="action, view-stream, agenda, control, grid, row" d="M170.748 155.913h726.042v256.25h-726.042v-256.25zM170.748 711.122v-256.25h726.042v256.25h-726.042z" />
<glyph unicode="&#xe99d;" glyph-name="action86" data-tags="action, wrench, build, setting, spanner, tool" d="M59.791 53.413l98.229-98.229c17.084-17.084 42.709-17.084 59.791 0l388.647 388.647c98.229-38.438 213.542-17.084 294.688 64.063 85.416 85.416 106.771 213.542 55.521 316.042l-187.917-183.646-128.125 128.125 183.646 183.646c-102.5 46.979-230.625 29.896-316.042-55.521-81.146-81.146-102.5-196.459-64.063-294.688l-388.647-388.647c-17.084-12.813-17.084-42.709 4.271-59.791z" />
<glyph unicode="&#xe99e;" glyph-name="message" data-tags="message, bell, alarm, notification" d="M512.5-14.921c46.979 0 85.416 38.438 85.416 85.416h-170.834c0-46.979 38.394-85.416 85.416-85.416zM850.43 173.018l-39.057 85.78v138.803h0.043v57.4c0 2.221-0.277 4.377-0.341 6.598-0.149 7.218-0.427 14.414-1.089 21.504-0.405 4.271-1.11 8.456-1.687 12.663-0.684 4.997-1.345 10.015-2.263 14.927-0.897 4.72-2.007 9.31-3.118 13.923-1.004 4.185-2.029 8.392-3.203 12.492-1.409 4.954-2.968 9.845-4.634 14.713-1.196 3.459-2.455 6.919-3.78 10.335-2.007 5.21-4.079 10.399-6.363 15.46-1.174 2.563-2.434 5.082-3.673 7.623-2.755 5.681-5.552 11.318-8.669 16.784-0.405 0.726-0.876 1.409-1.302 2.157-16.187 28.038-36.772 53.108-60.838 74.441-0.363 0.32-0.705 0.641-1.046 0.961-5.766 5.040-11.723 9.845-17.852 14.457-0.726 0.534-1.452 1.11-2.199 1.645-6.107 4.484-12.343 8.756-18.77 12.791-0.705 0.448-1.43 0.854-2.157 1.302-6.663 4.079-13.432 7.987-20.415 11.552-0.043 0-0.064 0.021-0.107 0.043-15.888 8.093-32.757 14.393-50.097 19.624v12.962c0 47.107-38.202 85.31-85.288 85.31-47.107 0-85.288-38.202-85.288-85.31v-12.962c-17.361-5.232-34.252-11.531-50.14-19.624-0.021-0.021-0.064-0.043-0.107-0.043-6.983-3.566-13.773-7.474-20.415-11.552-0.726-0.448-1.43-0.854-2.157-1.302-6.427-4.015-12.684-8.307-18.77-12.791-0.748-0.534-1.473-1.11-2.199-1.645-6.15-4.613-12.108-9.396-17.852-14.457-0.363-0.32-0.705-0.641-1.046-0.961-24.067-21.333-44.652-46.424-60.838-74.441-0.427-0.726-0.897-1.409-1.302-2.157-3.118-5.466-5.894-11.126-8.669-16.784-1.238-2.541-2.498-5.061-3.673-7.623-2.285-5.061-4.377-10.229-6.363-15.46-1.324-3.416-2.584-6.876-3.78-10.335-1.666-4.869-3.224-9.738-4.634-14.713-1.174-4.1-2.221-8.307-3.203-12.492-1.11-4.634-2.221-9.225-3.118-13.923-0.918-4.912-1.581-9.93-2.263-14.927-0.577-4.207-1.281-8.392-1.687-12.663-0.662-7.090-0.94-14.286-1.089-21.504-0.043-2.221-0.341-4.356-0.341-6.598v-57.4h0.043v-138.803l-39.057-85.78c-2.37-5.21-3.737-10.976-3.737-17.084 0-23.618 19.134-42.73 42.709-42.73h597.917c23.575 0 42.709 19.112 42.709 42.73 0 6.107-1.366 11.873-3.737 17.084z" />
<glyph unicode="&#xe99f;" glyph-name="message1" data-tags="message, bell-o, alarm, notification" d="M512.5-14.921c46.979 0 85.416 38.438 85.416 85.416h-170.834c0-46.979 38.394-85.416 85.416-85.416zM850.43 173.018l-39.057 85.78v138.803l0.043 57.293h0.043c0 135.449-90.157 249.695-213.67 286.445v12.62c0 47.129-38.181 85.31-85.288 85.31s-85.288-38.181-85.288-85.31v-12.62c-123.534-36.751-213.67-150.995-213.67-286.445h0.043l0.043-57.293v-138.803l-39.057-85.78c-2.37-5.21-3.737-10.976-3.737-17.105 0-23.596 19.134-42.709 42.709-42.709h597.917c23.575 0 42.709 19.112 42.709 42.709 0 6.129-1.366 11.895-3.737 17.105zM597.875 198.622h-317.793l11.275 24.771 7.688 16.848v157.402l-0.043 57.293v3.951c2.135 115.91 97.098 209.549 213.499 209.549 116.381 0 211.299-93.574 213.499-209.442v-4.036l-0.043-57.357v-157.338l18.941-41.62h-147.024z" />
<glyph unicode="&#xe9a0;" glyph-name="message2" data-tags="message, bell-off, alarm, notification" d="M512.5-14.921c46.979 0 85.416 38.438 85.416 85.416h-170.834c0-46.979 38.394-85.416 85.416-85.416zM680.173 701.897c-3.203 2.199-6.321 4.484-9.609 6.555-0.705 0.448-1.409 0.854-2.135 1.302-6.684 4.079-13.453 7.987-20.436 11.552-0.043 0-0.064 0.021-0.107 0.043-15.866 8.093-32.757 14.393-50.097 19.624v12.962c0 47.107-38.181 85.31-85.288 85.31s-85.288-38.202-85.288-85.31v-12.962c-17.361-5.232-34.252-11.531-50.14-19.624-0.043-0.021-0.064-0.043-0.107-0.043-6.983-3.566-13.773-7.474-20.436-11.552-0.705-0.448-1.409-0.854-2.135-1.302-6.449-4.015-12.705-8.307-18.791-12.791-0.748-0.534-1.473-1.11-2.221-1.645-6.129-4.613-12.087-9.396-17.852-14.457-0.363-0.32-0.684-0.641-1.046-0.961-24.088-21.333-44.673-46.424-60.859-74.441-0.427-0.726-0.897-1.409-1.302-2.157-3.096-5.466-5.894-11.126-8.648-16.784-1.238-2.541-2.519-5.061-3.673-7.623-2.285-5.061-4.377-10.229-6.385-15.46-1.324-3.416-2.584-6.876-3.801-10.335-1.645-4.869-3.203-9.738-4.634-14.691-1.174-4.1-2.199-8.307-3.203-12.492-1.11-4.634-2.221-9.225-3.096-13.923-0.94-4.912-1.602-9.93-2.285-14.927-0.556-4.207-1.281-8.392-1.666-12.663-0.662-7.090-0.94-14.286-1.089-21.504-0.064-2.221-0.341-4.356-0.341-6.598v-57.4h0.043l-0.043-167.631 466.675 471.928zM811.373 258.797v138.803h0.043v57.4c0 2.221-0.299 4.377-0.341 6.598-0.149 7.218-0.427 14.414-1.089 21.504-0.384 4.271-1.11 8.456-1.666 12.663-0.684 4.997-1.345 10.015-2.285 14.927-0.876 4.72-1.986 9.31-3.096 13.923-1.025 4.185-2.050 8.392-3.203 12.492-1.409 4.954-2.99 9.845-4.634 14.691-1.217 3.459-2.477 6.919-3.801 10.335-2.007 5.21-4.079 10.378-6.385 15.46-1.153 2.563-2.413 5.082-3.673 7.623-2.755 5.681-5.552 11.318-8.648 16.784-0.427 0.726-0.876 1.409-1.302 2.157-0.769 1.345-1.666 2.584-2.455 3.908l128.018 128.040-60.432 60.432-708.319-708.34 60.432-60.411 85.438 85.438h537.485c23.575 0 42.709 19.112 42.709 42.73 0 6.107-1.366 11.873-3.737 17.084l-39.057 85.759z" />
<glyph unicode="&#xe9a1;" glyph-name="message3" data-tags="message, bell-off-o, alarm, notification" d="M512.5-14.921c46.979 0 85.416 38.438 85.416 85.416h-170.834c0-46.979 38.394-85.416 85.416-85.416zM811.373 258.776v138.803l0.043 57.293h0.043c0 56.098-15.674 108.394-42.623 153.195l128.040 128.040-60.432 60.432-708.319-708.34 60.432-60.411 85.416 85.416h537.485c23.575 0 42.709 19.112 42.709 42.709 0 6.129-1.366 11.895-3.737 17.105l-39.057 85.759zM597.896 198.622h-238.505l346.471 346.471c12.385-26.245 19.582-55.414 20.137-86.207v-3.951l-0.043-57.357v-157.338l7.666-16.869 11.275-24.749h-147.003zM299.044 320.981v76.662l-0.043 57.293v3.865c2.093 115.953 97.055 209.613 213.499 209.613 38.481 0 74.484-10.378 105.682-28.252l61.97 61.948c-25.027 16.977-52.723 30.387-82.363 39.206v12.62c0 47.107-38.181 85.31-85.288 85.31s-85.288-38.202-85.288-85.31v-12.62c-123.513-36.751-213.67-150.995-213.67-286.445h0.043l0.043-57.293-0.085-165.602 85.502 89.004z" />
<glyph unicode="&#xe9a2;" glyph-name="message4" data-tags="message, calendar, date, schedule" d="M768.751 753.83v42.709h-85.416v-42.709h-341.667v42.709h-85.416v-42.709h-128.125v-726.042h768.751v726.042h-128.125zM213.542 113.204v427.81h597.917v-427.81h-597.917z" />
<glyph unicode="&#xe9a3;" glyph-name="message5" data-tags="message, calendar-add, date, schedule" d="M768.751 753.83v42.709h-85.416v-42.709h-341.667v42.709h-85.416v-42.709h-128.125v-726.042h768.751v726.042h-128.125zM213.542 113.204v427.81h597.917v-427.81h-597.917zM555.209 454.872h-85.416v-85.416h-85.416v-85.416h85.416v-85.416h85.416v85.416h85.416v85.416h-85.416z" />
<glyph unicode="&#xe9a4;" glyph-name="message6" data-tags="message, calendar-remove, date, schedule" d="M768.751 753.83v42.709h-85.416v-42.709h-341.667v42.709h-85.416v-42.709h-128.125v-726.042h768.751v726.042h-128.125zM811.459 113.204h-597.917v427.81h597.917v-427.81zM384.375 369.455h256.25v-85.416h-256.25v85.416z" />
<glyph unicode="&#xe9a5;" glyph-name="message7" data-tags="message, calendar-cancle, date, schedule" d="M384.867 258.797l60.091-60.091 67.714 67.735 67.799-67.821 60.070 60.091-67.799 67.821 67.885 67.906-60.091 60.091-67.863-67.885-68.227 68.227-60.070-60.091 68.206-68.248zM768.751 753.83v42.709h-85.416v-42.709h-341.667v42.709h-85.416v-42.709h-128.125v-726.042h768.751v726.042h-128.125zM811.459 113.204h-597.917v427.81h597.917v-427.81z" />
<glyph unicode="&#xe9a6;" glyph-name="message8" data-tags="message, calendar-check, date, schedule" d="M768.751 753.83v42.709h-85.416v-42.709h-341.667v42.709h-85.416v-42.709h-128.125v-726.042h768.751v726.042h-128.125zM811.459 113.204h-597.917v427.81h597.917v-427.81zM469.856 198.622l213.413 213.392-60.39 60.411-153.024-153.002-67.863 67.863-60.39-60.411 67.863-67.863z" />
<glyph unicode="&#xe9a7;" glyph-name="message9" data-tags="message, calendar-list, date, schedule" d="M768.751 753.83v42.709h-85.416v-42.709h-341.667v42.709h-85.416v-42.709h-128.125v-726.042h768.751v726.042h-128.125zM811.459 113.204h-597.917v427.81h597.917v-427.81zM298.959 497.58h427.084v-85.416h-427.084v85.416zM298.959 369.455h427.084v-85.416h-427.084v85.416zM298.959 241.329h427.084v-85.416h-427.084v85.416z" />
<glyph unicode="&#xe9a8;" glyph-name="message10" data-tags="message, info, help, alert" d="M512.5 839.247c-235.494 0-427.084-191.611-427.084-427.084s191.59-427.084 427.084-427.084c235.494 0 427.084 191.611 427.084 427.084s-191.59 427.084-427.084 427.084zM555.209 496.32v-297.699h-85.416v256.037h-42.709v42.922h128.125v-1.26zM512.5 540.288c-23.596 0-42.709 19.134-42.709 42.709s19.112 42.709 42.709 42.709c23.575 0 42.709-19.134 42.709-42.709s-19.134-42.709-42.709-42.709z" />
<glyph unicode="&#xe9a9;" glyph-name="message11" data-tags="message, info-o, help, alert" d="M512.5 839.247c-235.494 0-427.084-191.59-427.084-427.084s191.59-427.084 427.084-427.084c235.494 0 427.084 191.59 427.084 427.084s-191.59 427.084-427.084 427.084zM512.5 70.497c-188.387 0-341.667 153.281-341.667 341.667s153.281 341.667 341.667 341.667c188.387 0 341.667-153.281 341.667-341.667s-153.281-341.667-341.667-341.667zM555.209 582.997c0-23.587-19.122-42.709-42.709-42.709s-42.709 19.122-42.709 42.709c0 23.587 19.122 42.709 42.709 42.709s42.709-19.122 42.709-42.709zM554.889 497.58h-127.805v-42.709h42.922v-256.25h85.203v286.936h-0.32z" />
<glyph unicode="&#xe9aa;" glyph-name="message12" data-tags="message, new, notification" d="M512.5 839.247c-235.857 0-427.084-191.206-427.084-427.084s191.227-427.084 427.084-427.084c235.878 0 427.084 191.206 427.084 427.084s-191.206 427.084-427.084 427.084zM683.334 241.244h-85.416v0.405l-170.834 207.349v-207.755h-85.416v341.667h85.416v-0.277l0.341 0.277 170.491-206.943v206.943h85.416v-341.667z" />
<glyph unicode="&#xe9ab;" glyph-name="message13" data-tags="message, new-o, notification" d="M512.5 839.247c-235.494 0-427.084-191.59-427.084-427.084s191.59-427.084 427.084-427.084c235.494 0 427.084 191.59 427.084 427.084s-191.59 427.084-427.084 427.084zM512.5 70.497c-188.387 0-341.667 153.281-341.667 341.667s153.281 341.667 341.667 341.667c188.387 0 341.667-153.281 341.667-341.667s-153.281-341.667-341.667-341.667zM597.917 582.997v-204.744l-170.834 204.744h-85.416v-341.667h85.416v209.271l170.834-209.271h85.416v341.667z" />
<glyph unicode="&#xe9ac;" glyph-name="message14" data-tags="message, error, alert" d="M512.5 839.247c-235.494 0-427.084-191.59-427.084-427.084s191.59-427.084 427.084-427.084c235.494 0 427.084 191.59 427.084 427.084s-191.59 427.084-427.084 427.084zM469.792 284.038h85.416v-85.416h-85.416v85.416zM555.209 326.747h-85.416v298.959h85.416v-298.959z" />
<glyph unicode="&#xe9ad;" glyph-name="message15" data-tags="message, error-o, alert" d="M512.5 839.247c-235.494 0-427.084-191.59-427.084-427.084s191.59-427.084 427.084-427.084c235.494 0 427.084 191.59 427.084 427.084s-191.59 427.084-427.084 427.084zM512.5 70.497c-188.387 0-341.667 153.281-341.667 341.667s153.281 341.667 341.667 341.667c188.387 0 341.667-153.281 341.667-341.667s-153.281-341.667-341.667-341.667zM469.792 625.705h85.416v-298.959h-85.416v298.959zM469.792 284.038h85.416v-85.416h-85.416v85.416z" />
<glyph unicode="&#xe9ae;" glyph-name="message16" data-tags="message, help-o, info, question, alert" d="M512.5 839.247c-235.494 0-427.084-191.59-427.084-427.084s191.59-427.084 427.084-427.084c235.494 0 427.084 191.59 427.084 427.084s-191.59 427.084-427.084 427.084zM512.5 70.497c-188.387 0-341.667 153.281-341.667 341.667s153.281 341.667 341.667 341.667c188.387 0 341.667-153.281 341.667-341.667s-153.281-341.667-341.667-341.667zM512.5 625.705c-70.661 0-128.125-57.464-128.125-128.125h85.416c0 23.554 19.176 42.709 42.709 42.709s42.709-19.155 42.709-42.709c0-9.694-2.477-21.674-20.735-36.943-10.87-8.2-64.682-51.848-64.682-111.853v-22.017h85.416v22.017c0 13.56 18.023 34.209 30.835 43.755 0.662 0.491 1.366 1.025 2.007 1.559 34.893 28.743 52.574 63.571 52.574 103.504 0 70.64-57.464 128.104-128.125 128.104zM555.209 241.329c0-23.587-19.122-42.709-42.709-42.709s-42.709 19.122-42.709 42.709c0 23.587 19.122 42.709 42.709 42.709s42.709-19.122 42.709-42.709z" />
<glyph unicode="&#xe9af;" glyph-name="message17" data-tags="message, help, info, question, alert" d="M512.5 839.247c-235.494 0-427.084-191.59-427.084-427.084s191.59-427.084 427.084-427.084 427.084 191.59 427.084 427.084-191.59 427.084-427.084 427.084zM512.5 198.622c-23.575 0-42.709 19.134-42.709 42.709s19.134 42.709 42.709 42.709 42.709-19.134 42.709-42.709-19.134-42.709-42.709-42.709zM588.051 394.077c-0.641-0.534-1.345-1.068-2.007-1.559-12.813-9.545-30.835-30.194-30.835-43.755v-22.017h-85.416v22.017c0 60.027 53.834 103.653 64.682 111.853 18.237 15.29 20.735 27.248 20.735 36.943 0 23.554-19.176 42.709-42.709 42.709s-42.709-19.155-42.709-42.709h-85.416c0 70.661 57.464 128.125 128.125 128.125s128.125-57.464 128.125-128.125c0-39.911-17.681-74.74-52.574-103.482z" />
<glyph unicode="&#xe9b0;" glyph-name="message18" data-tags="message, ban, block, alert" d="M512.5 839.247c-235.494 0-427.084-191.59-427.084-427.084s191.59-427.084 427.084-427.084 427.084 191.59 427.084 427.084-191.59 427.084-427.084 427.084zM512.5 753.83c78.818 0 151.295-27.098 209.164-72.113l-478.718-478.718c-45.015 57.87-72.113 130.346-72.113 209.164 0 188.387 153.281 341.667 341.667 341.667zM512.5 70.497c-78.818 0-151.295 27.098-209.164 72.113l478.718 478.718c45.015-57.87 72.113-130.346 72.113-209.164 0-188.387-153.281-341.667-341.667-341.667z" />
<glyph unicode="&#xe9b1;" glyph-name="content25" data-tags="content, close-thin, times, clear, remove, delete" d="M875.522 724.404l-29.426 29.426-312.241-312.241-312.241 312.241-29.426-29.426 312.241-312.241-312.241-312.241 29.426-29.426 312.241 312.241 312.241-312.241 29.426 29.426-312.241 312.241z" />
<glyph unicode="&#xe9b2;" glyph-name="content26" data-tags="content, cut, scissors" d="M427.084 219.976c0 15.14-2.285 29.746-6.513 43.498l76.47 71.878 186.294-180.699c102.777-107.326 211.385-43.606 213.349-42.794h0.192l-0.064 0.064 0.064 0.021-0.299 0.213-318.519 299.343 318.626 299.664c-1.965 0.812-110.593 64.532-213.349-42.794l-186.294-180.699-76.768 72.134c4.42 14.094 6.791 29.041 6.791 44.567 0 82.405-67.074 149.479-149.479 149.479s-149.479-67.074-149.479-149.479 67.074-149.479 149.479-149.479c27.398 0 53.023 7.559 75.145 20.479l65.813-63.849-64.98-63.017c-22.294 13.24-48.218 20.969-75.978 20.969-82.405 0-149.479-67.074-149.479-149.479s67.074-149.479 149.479-149.479 149.501 67.052 149.501 149.458zM213.542 604.351c0 35.319 28.743 64.063 64.063 64.063s64.063-28.743 64.063-64.063-28.743-64.063-64.063-64.063-64.063 28.743-64.063 64.063zM469.792 412.142c0 11.788 9.566 21.354 21.376 21.354 11.788 0 21.333-9.566 21.333-21.354s-9.545-21.354-21.333-21.354c-11.809 0-21.376 9.566-21.376 21.354zM213.542 219.976c0 35.319 28.743 64.063 64.063 64.063s64.063-28.743 64.063-64.063-28.743-64.063-64.063-64.063-64.063 28.743-64.063 64.063z" />
<glyph unicode="&#xe9b3;" glyph-name="content27" data-tags="content, label, tag, add" d="M752.948 675.247c-15.375 21.781-41 35.875-69.615 35.875l-469.792-0.427c-46.979 0-85.416-38.010-85.416-84.99v-427.084c0-46.979 38.438-84.99 85.416-84.99l469.792-0.427c28.615 0 54.24 14.094 69.615 35.875l186.635 263.084c0 0-186.635 263.084-186.635 263.084z" />
<glyph unicode="&#xe9b4;" glyph-name="content28" data-tags="content, label-o, tag, add" d="M752.948 675.247c-15.375 21.781-41 35.875-69.615 35.875l-469.792-0.427c-46.979 0-85.416-38.010-85.416-84.99v-427.084c0-46.979 38.438-84.99 85.416-84.99l469.792-0.427c28.615 0 54.24 14.094 69.615 35.875l186.635 263.084c0 0-186.635 263.084-186.635 263.084zM683.334 198.622h-469.792v427.084h469.792l151.615-213.542-151.615-213.542z" />
<glyph unicode="&#xe9b5;" glyph-name="content29" data-tags="content, library-add, collection, add" d="M170.791 711.122h-85.416v-683.334c0-23.575 19.134-42.709 42.709-42.709h640.626v85.416h-597.917v640.626zM854.21 796.539h-598.003c-23.49 0-42.709-19.219-42.709-42.709v-597.917c0-23.49 19.219-42.709 42.709-42.709h598.003c23.49 0 42.709 19.219 42.709 42.709v597.917c0 23.49-19.219 42.709-42.709 42.709zM768.708 412.163h-170.834v-170.834h-85.416v170.834h-170.834v85.416h170.834v170.834h85.416v-170.834h170.834v-85.416z" />
<glyph unicode="&#xe9b6;" glyph-name="content30" data-tags="content, library-bookmark, collection, add" d="M170.834 711.122h-85.416v-683.334c0-23.575 19.134-42.709 42.709-42.709h640.626v85.416h-597.917v640.626zM854.167 796.539h-597.917c-23.49 0-42.709-19.219-42.709-42.709v-597.917c0-23.49 19.219-42.709 42.709-42.709h597.917c23.49 0 42.709 19.219 42.709 42.709v597.917c0 23.49-19.219 42.709-42.709 42.709zM811.373 412.163l-106.749 85.416-106.749-85.416v298.959h213.499v-298.959z" />
<glyph unicode="&#xe9b7;" glyph-name="hardware4" data-tags="hardware, watch, clock, device" d="M768.751 412.163c0 76.149-33.569 144.418-86.463 191.398l-41.662 235.686h-256.25l-41.662-235.686c-52.895-46.979-86.463-115.27-86.463-191.398s33.569-144.418 86.463-191.398l41.662-235.686h256.25l41.662 235.686c52.895 46.979 86.463 115.249 86.463 191.398zM512.5 241.329c-94.193 0-170.834 76.64-170.834 170.834s76.64 170.834 170.834 170.834 170.834-76.64 170.834-170.834-76.64-170.834-170.834-170.834z" />
<glyph unicode="&#xe9b8;" glyph-name="hardware5" data-tags="hardware, mouse, input" d="M512.5 839.247c-164.854 0-298.959-134.104-298.959-298.959v-256.25c0-164.854 134.104-298.959 298.959-298.959s298.959 134.104 298.959 298.959v256.25c0 164.854-134.104 298.959-298.959 298.959zM726.042 284.038c0-117.747-95.795-213.542-213.542-213.542s-213.542 95.795-213.542 213.542v256.25c0 117.747 95.795 213.542 213.542 213.542s213.542-95.795 213.542-213.542v-256.25zM469.784 583.032h85.435v-128.153h-85.435v128.153z" />
<glyph unicode="&#xe9b9;" glyph-name="hardware6" data-tags="hardware, sdcard, device" d="M811.459 839.247h-427.084c-9.246 0-18.237-3.011-25.625-8.541l-170.834-128.146c-10.763-8.051-17.084-20.713-17.084-34.166v-640.605c0-23.575 19.134-42.709 42.709-42.709h597.917c23.575 0 42.709 19.134 42.709 42.709v768.751c0 23.575-19.134 42.709-42.709 42.709zM341.667 540.288h-85.416v128.125h85.416v-128.125zM512.5 625.705h-85.416v128.125h85.416v-128.125zM640.626 625.705h-85.416v128.125h85.416v-128.125zM768.751 625.705h-85.416v128.125h85.416v-128.125z" />
<glyph unicode="&#xe9ba;" glyph-name="hardware7" data-tags="hardware, usb-drive, port, device" d="M768.751 540.288v256.25c0 23.575-19.134 42.709-42.709 42.709h-427.084c-23.575 0-42.709-19.134-42.709-42.709v-256.25h-42.709v-512.5c0-23.575 19.134-42.709 42.709-42.709h512.5c23.575 0 42.709 19.134 42.709 42.709v512.5h-42.709zM341.667 753.83h341.667v-213.542h-341.667v213.542zM384.375 711.122h85.416v-128.125h-85.416v128.125zM555.209 711.122h85.416v-128.125h-85.416v128.125z" />
<glyph unicode="&#xe9bb;" glyph-name="content31" data-tags="content, save, diskette, add" d="M884.363 698.608l-85.416 85.416c-8.008 8.008-18.877 12.513-30.194 12.513h-42.709v-256.25h-469.792v256.25h-85.416c-23.575 0-42.709-19.134-42.709-42.709v-683.334c0-23.575 19.134-42.709 42.709-42.709h683.334c23.575 0 42.709 19.134 42.709 42.709v597.917c0 11.318-4.505 22.187-12.513 30.194zM768.751 155.913h-512.5v256.25h512.5v-256.25zM511.945 796.539h171.944v-213.542h-171.944v213.542z" />
<glyph unicode="&#xe9bc;" glyph-name="hardware8" data-tags="hardware, diskette, floppy, save" d="M884.363 698.608l-85.416 85.416c-8.008 8.008-18.877 12.513-30.194 12.513h-42.709v-256.25h-469.792v256.25h-85.416c-23.575 0-42.709-19.134-42.709-42.709v-683.334c0-23.575 19.134-42.709 42.709-42.709h683.334c23.575 0 42.709 19.134 42.709 42.709v597.917c0 11.318-4.505 22.187-12.513 30.194zM768.751 155.913h-512.5v256.25h512.5v-256.25zM511.945 796.539h171.944v-213.542h-171.944v213.542z" />
<glyph unicode="&#xe9bd;" glyph-name="hardware9" data-tags="hardware, printer" d="M896.876 625.705h-128.125v213.542h-512.5v-213.542h-128.125c-23.575 0-42.709-19.134-42.709-42.709v-384.375c0-23.575 19.134-42.709 42.709-42.709h128.125v-170.834h512.5v170.834h128.125c23.575 0 42.709 19.134 42.709 42.709v384.375c0 23.575-19.134 42.709-42.709 42.709zM341.667 753.83h341.667v-128.125h-341.667v128.125zM683.334 70.497h-341.667v170.834h341.667v-170.834zM811.459 454.872c-23.468 0-42.709 19.219-42.709 42.709 0 23.468 19.24 42.709 42.709 42.709s42.709-19.24 42.709-42.709c0-23.49-19.24-42.709-42.709-42.709z" />
<glyph unicode="&#xe9be;" glyph-name="hardware10" data-tags="hardware, fax" d="M298.959 625.705h-170.834c-23.575 0-42.709-19.134-42.709-42.709v-512.5c0-23.575 19.134-42.709 42.709-42.709h170.834c23.575 0 42.709 19.134 42.709 42.709v512.5c0 23.575-19.134 42.709-42.709 42.709zM896.876 796.539h-341.667c-23.575 0-42.709-19.134-42.709-42.709v-128.125h-128.125v-597.917h512.5c23.575 0 42.709 19.134 42.709 42.709v683.334c0 23.575-19.134 42.709-42.709 42.709zM555.209 155.913c-23.596 0-42.709 19.134-42.709 42.709 0 23.596 19.112 42.709 42.709 42.709 23.575 0 42.709-19.112 42.709-42.709 0-23.575-19.134-42.709-42.709-42.709zM555.209 326.747c-23.596 0-42.709 19.134-42.709 42.709 0 23.596 19.112 42.709 42.709 42.709 23.575 0 42.709-19.112 42.709-42.709 0-23.575-19.134-42.709-42.709-42.709zM683.334 155.913c-23.596 0-42.709 19.134-42.709 42.709 0 23.596 19.112 42.709 42.709 42.709 23.575 0 42.709-19.112 42.709-42.709 0-23.575-19.134-42.709-42.709-42.709zM683.334 326.747c-23.596 0-42.709 19.134-42.709 42.709 0 23.596 19.112 42.709 42.709 42.709 23.575 0 42.709-19.112 42.709-42.709 0-23.575-19.134-42.709-42.709-42.709zM811.459 155.913c-23.596 0-42.709 19.134-42.709 42.709 0 23.596 19.112 42.709 42.709 42.709 23.575 0 42.709-19.112 42.709-42.709 0-23.575-19.134-42.709-42.709-42.709zM811.459 326.747c-23.596 0-42.709 19.134-42.709 42.709 0 23.596 19.112 42.709 42.709 42.709 23.575 0 42.709-19.112 42.709-42.709 0-23.575-19.134-42.709-42.709-42.709zM854.167 640.824v-100.535h-256.25v170.834h256.25v-70.298z" />
<glyph unicode="&#xe9bf;" glyph-name="content32" data-tags="content, lightbulb, idea" d="M384.375 27.788c0-23.49 19.219-42.709 42.709-42.709h170.834c23.49 0 42.709 19.219 42.709 42.709v42.709h-256.25v-42.709zM512.5 839.247c-164.854 0-298.959-134.104-298.959-298.959 0-101.646 50.823-190.906 128.125-245.146v-139.229c0-23.49 19.219-42.709 42.709-42.709h256.25c23.49 0 42.709 19.219 42.709 42.709v139.229c77.302 54.24 128.125 143.5 128.125 245.146 0 164.854-134.104 298.959-298.959 298.959z" />
<glyph unicode="&#xe9c0;" glyph-name="content33" data-tags="content, lightbulb-o, idea" d="M384.375 27.788c0-23.49 19.219-42.709 42.709-42.709h170.834c23.49 0 42.709 19.219 42.709 42.709v42.709h-256.25v-42.709zM512.5 839.247c-164.854 0-298.959-134.104-298.959-298.959 0-101.646 50.823-190.906 128.125-245.146v-139.229c0-23.49 19.219-42.709 42.709-42.709h256.25c23.49 0 42.709 19.219 42.709 42.709v139.229c77.302 54.24 128.125 143.5 128.125 245.146 0 164.854-134.104 298.959-298.959 298.959zM634.219 365.184l-36.302-25.625v-140.938h-170.834v140.938l-36.302 25.625c-57.656 40.146-91.823 105.49-91.823 175.104 0 117.875 95.666 213.542 213.542 213.542s213.542-95.666 213.542-213.542c0-69.615-34.166-134.959-91.823-175.104z" />
<glyph unicode="&#xe9c1;" glyph-name="content34" data-tags="content, link" d="M341.667 454.872h341.667v-85.416h-341.667v85.416zM128.125 412.163c0 94.193 76.64 170.834 170.834 170.834h170.834v85.416h-170.834c-141.301 0-256.25-114.949-256.25-256.25s114.949-256.25 256.25-256.25h170.834v85.416h-170.834c-94.193 0-170.834 76.64-170.834 170.834zM726.042 668.413h-170.834v-85.416h170.834c94.193 0 170.834-76.64 170.834-170.834s-76.64-170.834-170.834-170.834h-170.834v-85.416h170.834c141.301 0 256.25 114.949 256.25 256.25s-114.949 256.25-256.25 256.25z" />
<glyph unicode="&#xe9c2;" glyph-name="content35" data-tags="content, minus-thin, remove, minify, clear" d="M128.125 454.872h811.459v-42.709h-811.459v42.709z" />
<glyph unicode="&#xe9c3;" glyph-name="content36" data-tags="content, package, archive, box" d="M128.125 796.539h768.751v-170.834h-768.751v170.834zM170.834 582.997h683.334v-555.209h-683.334v555.209zM405.729 454.872c-11.788 0-21.354-9.566-21.354-21.354v-64.063h256.25v64.063c0 11.788-9.566 21.354-21.354 21.354h-213.542z" />
<glyph unicode="&#xe9c4;" glyph-name="content37" data-tags="content, pen, pencil, create, write" d="M929.676 718.895l-110.444 110.423c-16.677 16.677-43.712 16.677-60.39 0l-75.509-75.509 170.834-170.834 75.509 75.509c16.656 16.677 16.677 43.734 0 60.411zM85.416 155.913v-170.834h170.834l532.339 532.339-170.834 170.834z" />
<glyph unicode="&#xe9c5;" glyph-name="content38" data-tags="content, pen-o, pencil, create, write" d="M909.389 698.63l-110.444 110.444c-16.677 16.677-43.712 16.677-60.39 0l-653.139-653.161v-170.834h170.834l653.139 653.139c16.677 16.677 16.677 43.734 0 60.411zM818.784 668.413l-60.39-60.411-50.033 50.033 60.39 60.411 50.033-50.033zM170.834 70.497v50.033l477.117 477.117 50.033-50.033-477.117-477.138h-50.033z" />
<glyph unicode="&#xe9c6;" glyph-name="content39" data-tags="content, plus-thin, add" d="M939.498 454.872h-384.375v384.375h-42.709v-384.375h-384.375v-42.709h384.375v-384.375h42.709v384.375h384.375z" />
<glyph unicode="&#xe9c7;" glyph-name="content40" data-tags="content, radiobox-blank, form" d="M512.5 839.247c-235.75 0-427.084-191.334-427.084-427.084s191.334-427.084 427.084-427.084 427.084 191.334 427.084 427.084-191.334 427.084-427.084 427.084zM512.5 70.497c-188.771 0-341.667 152.896-341.667 341.667s152.896 341.667 341.667 341.667 341.667-152.896 341.667-341.667-152.896-341.667-341.667-341.667z" />
<glyph unicode="&#xe9c8;" glyph-name="content41" data-tags="content, radiobox-checked, form" d="M512.5 625.705c-117.875 0-213.542-95.666-213.542-213.542s95.666-213.542 213.542-213.542 213.542 95.666 213.542 213.542-95.666 213.542-213.542 213.542zM512.5 839.247c-235.75 0-427.084-191.334-427.084-427.084s191.334-427.084 427.084-427.084 427.084 191.334 427.084 427.084-191.334 427.084-427.084 427.084zM512.5 70.497c-188.771 0-341.667 152.896-341.667 341.667s152.896 341.667 341.667 341.667 341.667-152.896 341.667-341.667-152.896-341.667-341.667-341.667z" />
<glyph unicode="&#xe9c9;" glyph-name="content42" data-tags="content, redo, repeat, selection, clear" d="M170.834 369.455c0-188.771 152.896-341.667 341.667-341.667s341.667 152.896 341.667 341.667h-85.416c0-141.365-114.885-256.25-256.25-256.25s-256.25 114.885-256.25 256.25 114.885 256.25 256.25 256.25v-170.834l213.542 213.542-213.542 213.542v-170.834c-188.771 0-341.667-152.896-341.667-341.667z" />
<glyph unicode="&#xe9ca;" glyph-name="content43" data-tags="content, switch-off, toggle-off, form" d="M298.959 625.705c117.939 0 213.542-95.602 213.542-213.542s-95.602-213.542-213.542-213.542-213.542 95.602-213.542 213.542 95.602 213.542 213.542 213.542zM854.167 326.747h-256.25v170.834h256.25c47.171 0 85.416-38.245 85.416-85.416s-38.245-85.416-85.416-85.416zM298.959 540.288c-70.768 0-128.125-57.357-128.125-128.125s57.357-128.125 128.125-128.125 128.125 57.357 128.125 128.125-57.357 128.125-128.125 128.125z" />
<glyph unicode="&#xe9cb;" glyph-name="content44" data-tags="content, switch-on, toggle-on, form" d="M726.042 625.705c117.939 0 213.542-95.602 213.542-213.542s-95.602-213.542-213.542-213.542c-117.939 0-213.542 95.602-213.542 213.542s95.602 213.542 213.542 213.542zM170.834 326.747c-47.171 0-85.416 38.245-85.416 85.416s38.245 85.416 85.416 85.416h256.25v-170.834h-256.25z" />
<glyph unicode="&#xe9cc;" glyph-name="content45" data-tags="content, toggle-off, switch-off, form" d="M341.753 155.913h341.667c141.301 0 256.25 114.949 256.25 256.25s-114.949 256.25-256.25 256.25h-341.667c-141.301 0-256.25-114.949-256.25-256.25s114.949-256.25 256.25-256.25zM683.419 625.705c117.747 0 213.542-95.795 213.542-213.542s-95.795-213.542-213.542-213.542h-200.324c69.167 45.933 114.907 124.453 114.907 213.542s-45.741 167.609-114.907 213.542h200.324zM341.753 625.705c117.747 0 213.542-95.795 213.542-213.542s-95.795-213.542-213.542-213.542-213.542 95.795-213.542 213.542 95.795 213.542 213.542 213.542z" />
<glyph unicode="&#xe9cd;" glyph-name="hardware11" data-tags="hardware, webcam, camera" d="M340.77 70.497h342.564v-85.416h-342.564v85.416zM619.272 497.58c0-35.381-28.682-64.063-64.063-64.063s-64.063 28.682-64.063 64.063c0 35.381 28.682 64.063 64.063 64.063s64.063-28.682 64.063-64.063zM512.5 839.247c-188.387 0-341.667-153.281-341.667-341.667s153.281-341.667 341.667-341.667c188.387 0 341.667 153.281 341.667 341.667s-153.281 341.667-341.667 341.667zM555.209 369.455c-70.768 0-128.125 57.357-128.125 128.125s57.357 128.125 128.125 128.125 128.125-57.357 128.125-128.125-57.357-128.125-128.125-128.125z" />
<glyph unicode="&#xe9ce;" glyph-name="content46" data-tags="content, toggle-on, switch-on, form" d="M341.753 155.913h341.667c141.301 0 256.25 114.949 256.25 256.25s-114.949 256.25-256.25 256.25h-341.667c-141.301 0-256.25-114.949-256.25-256.25s114.949-256.25 256.25-256.25zM683.419 625.705c117.939 0 213.542-95.602 213.542-213.542s-95.602-213.542-213.542-213.542-213.542 95.602-213.542 213.542 95.602 213.542 213.542 213.542z" />
<glyph unicode="&#xe9cf;" glyph-name="hardware12" data-tags="hardware, projector" d="M726.042 753.83c-69.657 0-131.413-33.676-170.427-85.416h-427.489c-23.575 0-42.709-19.134-42.709-42.709v-469.792c0-23.575 19.134-42.709 42.709-42.709h85.416v-85.416h85.416v85.416h384.375v-85.416h85.416v85.416h85.416c23.575 0 42.709 19.134 42.709 42.709v256.806c26.693 35.64 42.709 79.715 42.709 127.57 0 117.747-95.795 213.542-213.542 213.542zM427.084 284.038h-213.542v85.416h213.542v-85.416zM427.084 412.163h-213.542v85.416h213.542v-85.416zM726.042 412.163c-70.661 0-128.125 57.464-128.125 128.125s57.464 128.125 128.125 128.125 128.125-57.464 128.125-128.125-57.464-128.125-128.125-128.125z" />
<glyph unicode="&#xe9d0;" glyph-name="hardware13" data-tags="hardware, presentation, slide, chart" d="M128.125 839.247h768.751v-85.416h-768.751v85.416zM298.959 540.288h85.416v-128.125h-85.416v128.125zM469.792 668.413h85.416v-256.25h-85.416v256.25zM640.626 582.997h85.416v-170.834h-85.416v170.834zM811.459 326.747h-597.917v384.375h-85.416v-427.084c0-23.575 19.134-42.709 42.709-42.709h298.959v-86.762l-134.574-104.635 55.606-64.852 121.676 93.616 121.676-93.616 55.606 64.852-134.574 104.635v86.762h298.959c23.575 0 42.709 19.134 42.709 42.709v427.084h-85.416v-384.375z" />
<glyph unicode="&#xe9d1;" glyph-name="hardware14" data-tags="hardware, plug, power" d="M683.334 625.705v170.834c0 23.575-19.134 42.709-42.709 42.709s-42.709-19.134-42.709-42.709v-170.834h-170.834v170.834c0 23.575-19.134 42.709-42.709 42.709s-42.709-19.134-42.709-42.709v-170.834h-170.834v-170.834c0-143.351 88.385-265.881 213.542-316.597v-153.195h256.25v153.195c125.157 50.717 213.542 173.246 213.542 316.597v170.834h-170.834z" />
<glyph unicode="&#xe9d2;" glyph-name="technology" data-tags="technology, globus, network" d="M512.5 839.247c-235.494 0-427.084-191.59-427.084-427.084s191.59-427.084 427.084-427.084 427.084 191.59 427.084 427.084-191.568 427.084-427.084 427.084zM851.22 454.872h-126.972c-7.324 126.139-45.848 215.122-86.677 274.935 113.903-45.015 197.889-149.415 213.649-274.935zM511.753 79.999c-37.648 31.711-114.693 116.935-125.904 289.456h253.068c-11.318-172.606-89.218-257.831-127.164-289.456zM385.849 454.872c11.211 172.692 88.406 257.937 125.862 289.478 37.946-31.626 115.868-116.829 127.207-289.478h-253.068zM386.212 729.358c-40.38-59.813-78.434-148.646-85.673-274.487h-126.737c15.716 125.071 99.126 229.195 212.41 274.487zM173.802 369.455h126.737c7.239-125.84 45.292-214.674 85.673-274.487-113.284 45.292-196.693 149.415-212.41 274.487zM637.551 94.52c40.808 59.813 79.352 148.796 86.677 274.935h126.972c-15.738-125.52-99.724-229.921-213.649-274.935z" />
<glyph unicode="&#xe9d3;" glyph-name="content47" data-tags="content, undo, selection" d="M512.5 711.122v170.834l-213.542-213.542 213.542-213.542v170.834c141.365 0 256.25-114.885 256.25-256.25s-114.885-256.25-256.25-256.25-256.25 114.885-256.25 256.25h-85.416c0-188.771 152.896-341.667 341.667-341.667s341.667 152.896 341.667 341.667-152.896 341.667-341.667 341.667z" />
<glyph unicode="&#xe9d4;" glyph-name="communication" data-tags="communication, call, phone" d="M282.729 463.841c61.5-120.865 160.584-219.521 281.448-281.448l93.959 93.959c11.531 11.531 28.615 15.375 43.563 10.25 47.834-15.802 99.51-24.344 152.469-24.344 23.49 0 42.709-19.219 42.709-42.709v-149.053c0-23.49-19.219-42.709-42.709-42.709-401.032 0-726.042 325.010-726.042 726.042 0 23.49 19.219 42.709 42.709 42.709h149.479c23.49 0 42.709-19.219 42.709-42.709 0-53.385 8.541-104.635 24.344-152.469 4.698-14.948 1.281-31.604-10.677-43.563l-93.959-93.959z" />
<glyph unicode="&#xe9d5;" glyph-name="communication1" data-tags="communication, call-made, phone, call-outgoing" d="M170.834 796.539c-23.596 0-42.709-19.134-42.709-42.709 0-400.989 325.053-726.042 726.042-726.042 23.596 0 42.709 19.134 42.709 42.709v149.479c0 23.575-19.112 42.709-42.709 42.709-53.385 0-104.635 8.541-152.469 24.344-14.948 4.698-31.604 1.281-43.563-10.25l-93.959-93.959c-120.865 61.5-219.948 160.156-281.448 281.448l93.959 94.385c11.959 11.104 15.375 27.76 10.677 42.709-15.802 47.834-24.344 99.084-24.344 152.469 0 23.575-19.112 42.709-42.709 42.709h-149.479zM640.626 796.539v-64.063h149.479l-234.896-234.896 42.709-42.709 234.896 234.896v-149.479h64.063v256.25h-256.25z" />
<glyph unicode="&#xe9d6;" glyph-name="communication2" data-tags="communication, call-missed, phone" d="M334.235 379.705c-19.219 26.607-36.516 54.688-51.506 84.135l93.959 93.959c11.959 11.959 15.375 28.615 10.677 43.563-15.802 47.834-24.344 99.084-24.344 152.469 0 23.49-19.219 42.709-42.709 42.709h-149.479c-23.49 0-42.709-19.219-42.709-42.709 0-163.316 53.92-314.035 144.931-435.305l61.18 61.18zM854.167 262.257c-52.959 0-104.635 8.541-152.469 24.344-14.948 5.125-32.031 1.281-43.563-10.25l-93.959-93.959c-47.598 24.387-91.502 54.773-131.285 89.773l463.984 463.984-60.39 60.39-708.361-708.361 60.39-60.39 183.603 183.603c128.21-114.074 296.909-183.603 482.050-183.603 23.49 0 42.709 19.219 42.709 42.709v149.053c0 23.49-19.219 42.709-42.709 42.709z" />
<glyph unicode="&#xe9d7;" glyph-name="communication3" data-tags="communication, call-received, phone, call-reception, call-incoming" d="M854.167 262.684c-53.385 0-104.635 8.541-152.469 24.344-14.948 4.698-31.604 1.281-43.563-10.25l-93.959-93.959c-120.865 61.5-219.948 160.156-281.448 281.448l93.959 94.385c11.959 11.104 15.375 27.76 10.677 42.709-15.802 47.834-24.344 99.084-24.344 152.469 0 23.575-19.112 42.709-42.709 42.709h-149.479c-23.596 0-42.709-19.134-42.709-42.709 0-400.989 325.053-726.042 726.042-726.042 23.596 0 42.709 19.134 42.709 42.709v149.479c0 23.575-19.112 42.709-42.709 42.709zM811.459 518.935h-149.479l234.896 234.896-42.709 42.709-234.896-234.896v149.479h-64.063v-256.25h256.25z" />
<glyph unicode="&#xe9d8;" glyph-name="communication4" data-tags="communication, comment, bubble, chat" d="M896.876 796.539h-768.751c-23.575 0-42.709-19.134-42.709-42.709v-597.917c0-23.575 19.134-42.709 42.709-42.709h298.959l85.416-128.125 85.416 128.125h298.959c23.575 0 42.709 19.134 42.709 42.709v597.917c0 23.575-19.134 42.709-42.709 42.709zM768.751 326.747h-512.5v85.416h512.5v-85.416zM768.751 497.58h-512.5v85.416h512.5v-85.416z" />
</font>
</defs>
</svg>
